<svg xmlns="http://www.w3.org/2000/svg" width="591" height="591" viewBox="0 0 591 591">
<g>
<path d="M 298.97,72.32 L 297.64,72.38 L 297.08,72.41 L 295.11,72.55 L 294.50,72.63 L 293.51,72.81 L 293.33,72.92 L 293.17,73.14 L 293.35,73.26 L 294.23,74.29 L 294.61,75.33 L 294.72,76.17 L 294.80,77.07 L 294.83,77.63 L 294.87,78.82 L 294.87,79.54 L 294.87,81.06 L 294.86,81.97 L 294.82,83.89 L 294.79,85.01 L 294.50,95.50 L 253.55,95.76 L 245.32,95.83 L 240.07,95.89 L 237.61,95.93 L 232.80,96.00 L 230.60,96.04 L 226.35,96.13 L 224.47,96.18 L 220.88,96.28 L 219.38,96.33 L 216.57,96.44 L 215.50,96.49 L 213.58,96.60 L 213.00,96.66 L 212.48,96.71 L 212.32,96.74 L 212.07,96.80 L 212.05,96.82 L 211.40,97.23 L 210.57,97.57 L 210.02,97.75 L 207.44,98.51 L 205.89,98.85 L 199.82,100.64 L 195.88,102.27 L 193.99,103.28 L 190.28,105.44 L 188.53,106.71 L 185.11,109.37 L 183.54,110.87 L 179.33,115.31 L 176.93,118.34 L 175.88,119.99 L 173.84,123.40 L 172.89,125.36 L 171.02,129.46 L 170.08,131.88 L 167.50,138.50 L 167.19,221.00 L 167.15,234.08 L 167.12,242.09 L 167.11,245.75 L 167.09,252.87 L 167.09,256.11 L 167.08,262.40 L 167.08,265.25 L 167.08,270.76 L 167.09,273.25 L 167.10,278.05 L 167.11,280.21 L 167.14,284.36 L 167.15,286.22 L 167.19,289.78 L 167.21,291.36 L 167.26,294.40 L 167.29,295.74 L 167.36,298.31 L 167.40,299.44 L 167.48,301.61 L 167.52,302.56 L 167.62,304.37 L 167.68,305.17 L 167.91,308.10 L 168.06,309.28 L 168.37,311.50 L 168.56,312.50 L 169.45,316.64 L 170.11,319.13 L 170.47,320.22 L 171.21,322.31 L 171.61,323.19 L 172.43,324.85 L 172.85,325.50 L 175.10,329.09 L 175.79,330.27 L 176.08,330.78 L 176.62,331.75 L 176.80,332.11 L 178.52,334.71 L 180.11,336.61 L 181.09,337.59 L 183.13,339.59 L 184.25,340.57 L 186.57,342.53 L 187.77,343.44 L 190.18,345.23 L 191.37,346.02 L 193.71,347.51 L 194.80,348.10 L 196.91,349.17 L 197.81,349.49 L 199.51,350.00 L 200.15,350.00 L 201.46,350.29 L 202.00,350.72 L 202.00,351.00 L 202.27,351.39 L 202.70,351.62 L 203.01,351.71 L 204.49,352.00 L 205.44,352.00 L 208.05,352.28 L 208.73,352.47 L 208.97,352.59 L 209.39,352.83 L 209.48,352.96 L 210.35,353.17 L 211.65,353.30 L 212.65,353.36 L 214.86,353.48 L 216.29,353.53 L 219.36,353.63 L 221.19,353.68 L 225.06,353.76 L 227.27,353.80 L 231.88,353.86 L 234.44,353.89 L 239.74,353.93 L 242.63,353.95 L 248.57,353.97 L 251.75,353.98 L 260.14,354.01 L 265.49,354.04 L 268.00,354.06 L 272.90,354.11 L 275.15,354.14 L 279.49,354.21 L 281.42,354.24 L 285.09,354.32 L 286.63,354.37 L 289.51,354.45 L 290.62,354.50 L 292.59,354.60 L 293.20,354.65 L 293.74,354.70 L 293.91,354.72 L 294.18,354.78 L 294.20,354.80 L 294.26,355.09 L 294.29,355.50 L 294.31,355.81 L 294.34,356.51 L 294.36,356.96 L 294.39,357.93 L 294.41,358.52 L 294.48,361.10 L 294.51,362.74 L 294.58,366.26 L 294.61,368.32 L 294.67,372.65 L 294.70,375.08 L 294.75,380.12 L 294.78,382.86 L 294.83,388.48 L 294.86,391.48 L 294.90,397.58 L 294.92,400.77 L 295.00,413.86 L 295.03,420.68 L 295.07,434.44 L 295.08,441.25 L 295.09,448.03 L 295.09,451.34 L 295.09,457.92 L 295.08,461.09 L 295.07,467.35 L 295.06,470.32 L 295.03,476.14 L 295.02,478.86 L 294.92,479.90 L 294.78,480.39 L 294.65,480.53 L 294.38,480.75 L 294.19,480.77 L 293.77,480.74 L 293.50,480.64 L 292.46,480.45 L 292.08,480.63 L 292.05,480.84 L 292.09,481.24 L 290.62,479.58 L 290.12,478.97 L 289.21,477.82 L 288.78,477.26 L 288.06,476.28 L 287.74,475.82 L 287.29,475.13 L 287.00,474.54 L 287.00,474.34 L 286.66,473.67 L 286.44,473.30 L 285.70,472.35 L 285.28,471.84 L 284.20,470.67 L 282.25,468.75 L 281.63,468.17 L 280.66,467.00 L 280.46,466.72 L 280.18,466.26 L 280.00,465.74 L 280.00,465.68 L 279.78,465.30 L 279.64,465.07 L 279.15,464.37 L 278.88,463.99 L 278.16,463.02 L 277.77,462.50 L 276.84,461.30 L 275.87,460.04 L 273.42,456.98 L 269.25,451.88 L 267.77,450.09 L 264.90,446.59 L 263.49,444.88 L 260.99,441.78 L 260.40,441.05 L 259.33,439.72 L 258.82,439.08 L 257.95,437.97 L 257.54,437.45 L 256.89,436.61 L 256.22,435.71 L 255.90,435.26 L 254.95,434.03 L 254.43,433.36 L 253.18,431.83 L 249.08,427.00 L 248.16,425.97 L 246.54,424.12 L 245.77,423.23 L 244.42,421.67 L 243.77,420.92 L 242.68,419.61 L 242.16,419.00 L 241.30,417.94 L 240.90,417.44 L 240.26,416.62 L 239.97,416.23 L 239.55,415.62 L 239.36,415.34 L 239.13,414.92 L 239.00,414.49 L 239.00,414.37 L 238.67,413.78 L 238.46,413.43 L 237.77,412.45 L 237.38,411.91 L 236.39,410.63 L 235.86,409.95 L 234.65,408.45 L 233.38,406.91 L 230.48,403.54 L 226.11,398.75 L 225.49,398.10 L 224.42,396.91 L 223.92,396.34 L 223.16,395.40 L 222.83,394.96 L 222.46,394.37 L 222.44,394.00 L 222.56,394.00 L 222.61,393.85 L 222.60,393.76 L 222.42,393.45 L 221.15,392.13 L 220.56,391.62 L 219.63,390.51 L 219.00,389.25 L 219.00,389.11 L 218.80,388.72 L 218.67,388.52 L 218.26,388.04 L 216.47,386.57 L 215.77,386.11 L 214.84,385.15 L 214.66,384.92 L 214.46,384.51 L 214.47,384.05 L 214.54,383.93 L 214.44,383.51 L 214.34,383.27 L 213.94,382.68 L 211.93,380.59 L 211.37,380.12 L 210.28,379.40 L 209.73,379.06 L 208.60,378.59 L 208.02,378.38 L 206.77,378.13 L 204.67,377.99 L 203.45,377.98 L 200.72,377.70 L 199.32,377.51 L 196.31,376.90 L 194.79,376.56 L 191.65,375.67 L 190.07,375.19 L 186.91,374.07 L 185.34,373.48 L 182.29,372.17 L 180.79,371.50 L 177.97,370.05 L 176.60,369.32 L 174.14,367.78 L 170.99,365.42 L 170.53,365.02 L 169.39,364.02 L 168.80,363.51 L 167.52,362.39 L 163.89,359.20 L 163.37,358.74 L 162.05,357.35 L 161.36,356.59 L 159.82,354.75 L 155.32,348.70 L 154.66,347.71 L 153.39,345.88 L 152.77,345.00 L 151.69,343.52 L 151.19,342.83 L 150.42,341.86 L 149.74,341.16 L 149.54,341.07 L 149.38,340.66 L 149.55,339.91 L 149.71,339.66 L 149.67,339.27 L 149.17,339.00 L 149.04,339.00 L 148.75,338.71 L 148.60,338.53 L 148.30,337.93 L 147.54,335.35 L 147.35,334.35 L 146.63,332.13 L 146.44,331.60 L 146.02,330.64 L 145.41,329.50 L 145.21,329.20 L 144.79,328.29 L 144.58,327.81 L 144.18,326.65 L 143.28,322.89 L 143.25,322.74 L 143.20,321.97 L 143.18,321.50 L 143.13,320.13 L 143.11,319.37 L 143.06,317.43 L 143.03,316.39 L 142.98,313.91 L 142.96,312.61 L 142.91,309.63 L 142.89,308.08 L 142.84,304.63 L 142.81,302.85 L 142.77,298.97 L 142.74,296.98 L 142.70,292.69 L 142.68,290.50 L 142.63,285.85 L 142.61,283.48 L 142.57,278.49 L 142.55,275.95 L 142.51,270.66 L 142.49,267.98 L 142.45,262.42 L 142.41,256.79 L 142.35,244.87 L 142.27,226.25 L 142.26,221.93 L 142.23,213.84 L 142.22,209.87 L 142.20,202.46 L 142.19,198.84 L 142.18,192.10 L 142.18,188.81 L 142.18,182.71 L 142.18,179.74 L 142.18,174.26 L 142.19,171.60 L 142.20,166.72 L 142.21,164.35 L 142.23,160.05 L 142.24,157.98 L 142.27,154.23 L 142.29,152.43 L 142.33,149.22 L 142.35,147.68 L 142.40,144.98 L 142.42,143.70 L 142.48,141.49 L 142.51,140.44 L 142.57,138.70 L 142.61,137.89 L 142.68,136.60 L 142.72,136.00 L 142.81,135.13 L 142.85,134.75 L 142.95,134.28 L 143.10,134.00 L 143.28,134.00 L 143.55,133.81 L 143.67,133.68 L 143.80,133.25 L 143.68,131.14 L 143.58,130.66 L 143.63,129.32 L 143.70,128.58 L 144.09,126.73 L 144.32,125.74 L 145.03,123.35 L 146.49,119.18 L 147.02,117.74 L 148.05,115.12 L 148.56,113.86 L 149.57,111.55 L 150.58,109.31 L 152.68,105.46 L 153.78,103.60 L 156.28,100.15 L 160.81,94.84 L 161.48,94.12 L 163.06,92.54 L 163.87,91.74 L 165.66,90.08 L 167.47,88.41 L 171.22,85.25 L 172.13,84.50 L 173.83,83.17 L 174.65,82.54 L 176.10,81.50 L 176.77,81.03 L 177.84,80.40 L 178.88,80.00 L 178.97,80.00 L 179.44,79.88 L 179.71,79.81 L 180.49,79.56 L 181.35,79.28 L 183.76,78.40 L 185.05,77.92 L 187.99,76.78 L 192.50,74.95 L 193.08,74.71 L 194.67,74.29 L 195.12,74.20 L 196.23,74.02 L 196.82,73.93 L 198.24,73.78 L 198.99,73.70 L 200.80,73.56 L 201.76,73.49 L 204.02,73.37 L 205.21,73.31 L 208.00,73.21 L 209.46,73.15 L 212.84,73.06 L 214.61,73.02 L 218.65,72.93 L 220.76,72.90 L 225.53,72.82 L 228.01,72.79 L 233.58,72.73 L 236.47,72.70 L 242.90,72.64 L 246.23,72.61 L 253.60,72.56 L 257.41,72.53 L 265.79,72.49 L 267.94,72.47 L 272.46,72.45 L 274.76,72.44 L 279.55,72.41 L 281.98,72.40 L 287.06,72.38 L 295.00,72.34 L 298.22,72.33 L 298.98,72.32 M 289.32,271.28 L 289.90,271.47 L 291.35,272.42 L 291.59,272.91 L 291.63,273.22 L 291.68,273.89 L 291.62,274.31 L 291.46,275.21 L 291.30,275.75 L 290.93,276.91 L 290.66,277.60 L 290.08,279.05 L 289.70,279.91 L 288.90,281.70 L 288.41,282.73 L 286.98,285.36 L 285.90,286.95 L 285.27,287.69 L 283.94,289.14 L 283.15,289.85 L 281.50,291.26 L 280.52,291.98 L 277.43,294.09 L 276.07,294.82 L 274.77,295.48 L 274.25,295.68 L 273.30,296.00 L 273.01,296.00 L 271.40,295.37 L 270.48,294.45 L 270.16,293.87 L 269.63,292.67 L 269.59,292.09 L 269.69,290.99 L 270.04,290.61 L 270.20,289.64 L 269.86,288.83 L 269.54,288.44 L 268.81,287.69 L 268.39,287.43 L 267.50,287.00 L 267.07,287.00 L 266.46,286.82 L 266.18,286.54 L 266.09,286.34 L 265.91,285.40 L 266.02,284.85 L 266.36,283.72 L 266.70,283.26 L 267.48,282.43 L 268.00,282.29 L 269.41,281.66 L 270.00,281.13 L 270.00,280.88 L 270.06,279.65 L 270.17,279.00 L 270.29,278.71 L 270.58,278.14 L 270.82,277.83 L 271.35,277.17 L 271.73,276.75 L 273.07,275.49 L 273.88,275.10 L 274.32,275.14 L 275.26,275.36 L 275.87,275.71 L 277.22,276.57 L 278.14,277.25 L 281.21,279.50 L 282.85,277.21 L 284.38,275.11 L 285.21,273.98 L 285.56,273.53 L 286.21,272.71 L 286.49,272.41 L 287.00,271.87 L 287.23,271.68 L 288.05,271.17 L 288.46,271.16 M 279.14,222.29 L 279.68,222.69 L 280.22,223.16 L 280.50,223.49 L 281.07,224.21 L 281.37,224.68 L 281.99,225.68 L 282.32,226.28 L 283.00,227.56 L 283.37,228.32 L 285.70,232.25 L 287.58,234.71 L 288.65,235.86 L 290.89,238.08 L 292.13,239.08 L 294.67,241.02 L 296.02,241.87 L 298.79,243.48 L 300.24,244.14 L 303.18,245.39 L 304.69,245.85 L 307.73,246.69 L 309.26,246.94 L 312.33,247.32 L 313.86,247.33 L 319.45,246.92 L 322.86,246.16 L 324.48,245.51 L 327.70,244.03 L 329.31,242.98 L 332.58,240.67 L 334.31,239.17 L 336.00,237.72 L 336.94,236.93 L 337.33,236.63 L 338.70,235.61 L 339.18,235.38 L 340.05,235.10 L 340.41,235.18 L 341.14,235.47 L 341.57,235.77 L 342.78,237.05 L 343.17,238.06 L 343.17,238.63 L 343.03,239.81 L 342.78,240.45 L 342.16,241.76 L 341.67,242.45 L 340.58,243.85 L 339.87,244.57 L 338.34,246.02 L 337.42,246.75 L 335.49,248.21 L 334.38,248.93 L 332.06,250.35 L 330.77,251.04 L 328.29,252.33 L 327.24,252.78 L 325.21,253.58 L 324.19,253.84 L 322.11,254.27 L 320.87,254.39 L 318.22,254.59 L 316.50,254.65 L 309.75,254.56 L 307.69,254.42 L 306.83,254.32 L 305.26,254.10 L 304.75,253.97 L 300.34,252.48 L 297.08,251.05 L 295.41,250.18 L 292.10,248.37 L 290.56,247.39 L 287.60,245.41 L 286.38,244.42 L 283.50,241.75 L 281.72,239.79 L 280.92,238.76 L 279.39,236.66 L 278.74,235.59 L 277.51,233.46 L 277.03,232.43 L 276.15,230.38 L 275.85,229.43 L 275.38,227.58 L 275.31,226.76 L 275.28,225.22 L 275.46,224.60 L 275.94,223.46 L 276.39,223.09 L 278.08,222.21 M 231.29,180.67 L 231.55,181.71 L 231.66,182.48 L 231.89,184.15 L 231.97,185.16 L 232.13,187.27 L 232.18,188.43 L 232.24,190.27 L 232.27,191.04 L 232.30,192.47 L 232.30,193.05 L 232.29,194.13 L 232.26,194.56 L 232.20,195.34 L 232.14,195.64 L 231.84,196.59 L 231.57,196.82 L 230.94,197.16 L 230.48,197.25 L 228.86,197.19 L 227.45,196.80 L 226.51,196.41 L 224.48,195.50 L 223.16,194.82 L 221.80,194.10 L 221.03,193.68 L 219.44,192.81 L 218.55,192.30 L 217.51,191.61 L 217.20,191.16 L 217.25,190.86 L 217.50,190.17 L 217.85,189.65 L 218.70,188.46 L 219.36,187.59 L 221.87,185.03 L 224.00,183.32 L 225.13,182.57 L 227.40,181.19 L 228.40,180.73 L 229.37,180.32 L 229.79,180.19 L 230.58,180.00 L 230.89,180.00 M 264.16,146.33 L 266.28,146.54 L 267.26,146.91 L 269.64,148.26 L 271.38,149.58 L 272.17,150.31 L 273.67,151.79 L 274.18,152.45 L 274.64,153.08 L 274.78,153.35 L 275.00,153.86 L 275.00,154.05 L 275.37,154.42 L 275.95,154.63 L 276.38,154.72 L 277.31,154.88 L 277.87,154.92 L 279.05,155.00 L 279.70,155.00 L 281.93,155.17 L 283.31,155.44 L 283.94,155.65 L 286.30,156.69 L 287.19,157.49 L 288.04,158.33 L 288.39,158.81 L 289.03,159.81 L 289.27,160.37 L 289.69,161.52 L 289.81,162.15 L 290.00,163.44 L 290.00,164.13 L 289.80,166.54 L 289.42,167.61 L 288.46,169.68 L 287.70,170.56 L 285.41,173.23 L 282.67,169.64 L 280.18,166.91 L 278.25,165.26 L 277.19,164.54 L 274.98,163.16 L 273.80,162.57 L 271.38,161.47 L 270.12,161.04 L 267.55,160.24 L 266.24,159.97 L 263.60,159.51 L 262.27,159.40 L 259.62,159.29 L 258.31,159.38 L 255.72,159.64 L 254.46,159.92 L 251.96,160.66 L 250.10,161.37 L 249.16,161.79 L 247.27,162.67 L 246.40,163.14 L 244.72,164.10 L 244.04,164.57 L 242.06,165.90 L 240.88,166.68 L 240.38,166.99 L 239.48,167.56 L 239.17,167.73 L 238.66,168.00 L 238.60,168.00 L 238.13,167.73 L 237.87,167.30 L 237.78,166.99 L 237.48,165.50 L 237.47,164.56 L 237.52,162.58 L 237.69,161.62 L 238.10,159.77 L 238.45,159.10 L 240.03,156.71 L 241.23,155.53 L 241.96,155.13 L 243.50,154.45 L 244.45,154.26 L 246.46,153.99 L 247.68,153.99 L 249.70,153.83 L 250.86,153.55 L 251.39,153.29 L 252.45,152.69 L 253.01,152.25 L 254.14,151.26 L 254.79,150.59 L 257.71,148.24 L 259.82,147.12 L 260.91,146.80 L 263.09,146.32 M 395.82,73.80 L 397.94,74.20 L 398.96,74.41 L 400.78,74.91 L 402.56,75.42 L 405.76,76.73 L 411.00,79.18 L 412.43,79.87 L 415.37,81.58 L 416.84,82.49 L 419.79,84.58 L 421.26,85.66 L 423.78,87.75 L 421.26,85.66 L 419.79,84.58 L 416.84,82.49 L 415.37,81.58 L 412.43,79.88 L 411.00,79.19 L 406.00,76.91 L 402.92,75.66 L 401.34,75.16 L 398.11,74.25 L 396.27,73.89 L 395.39,73.73 Z" fill="rgba(3,93,119,1)"/>
<path d="M 348.92,72.01 L 351.92,72.01 L 357.38,72.03 L 360.03,72.04 L 364.83,72.07 L 367.16,72.10 L 371.36,72.16 L 373.39,72.19 L 377.06,72.28 L 378.83,72.33 L 382.01,72.46 L 383.55,72.53 L 386.32,72.70 L 387.66,72.79 L 390.07,73.02 L 391.24,73.13 L 393.36,73.41 L 394.39,73.55 L 396.27,73.89 L 398.11,74.25 L 401.34,75.16 L 402.92,75.66 L 406.00,76.91 L 411.00,79.19 L 412.43,79.88 L 415.37,81.58 L 416.84,82.49 L 419.79,84.58 L 421.26,85.66 L 424.16,88.06 L 425.59,89.30 L 428.35,91.93 L 429.71,93.27 L 432.27,96.07 L 433.52,97.48 L 435.79,100.37 L 436.89,101.81 L 438.81,104.71 L 441.21,109.00 L 441.69,109.98 L 442.55,111.71 L 442.96,112.54 L 443.71,114.08 L 444.43,115.59 L 445.55,118.60 L 445.81,119.39 L 446.26,121.13 L 446.48,122.04 L 446.85,124.11 L 447.02,125.20 L 447.32,127.72 L 447.46,129.05 L 447.70,132.16 L 447.81,133.80 L 447.99,137.63 L 448.07,139.64 L 448.21,144.31 L 448.27,146.77 L 448.37,152.41 L 448.39,153.89 L 448.43,157.05 L 448.45,158.67 L 448.48,162.11 L 448.50,163.87 L 448.53,167.63 L 448.54,169.54 L 448.56,173.61 L 448.58,175.69 L 448.60,180.10 L 448.61,182.35 L 448.63,187.11 L 448.64,189.54 L 448.65,194.67 L 448.66,197.28 L 448.68,202.79 L 448.69,205.60 L 448.71,211.52 L 448.74,220.86 L 448.75,223.96 L 448.77,229.87 L 448.78,232.78 L 448.80,238.33 L 448.81,241.07 L 448.83,246.27 L 448.83,248.83 L 448.84,253.70 L 448.85,256.09 L 448.86,260.63 L 448.86,262.87 L 448.86,267.10 L 448.86,269.18 L 448.86,273.12 L 448.86,275.05 L 448.85,278.71 L 448.84,282.29 L 448.81,288.67 L 448.78,291.74 L 448.72,297.16 L 448.68,299.76 L 448.58,304.32 L 448.52,306.50 L 448.38,310.31 L 448.31,312.13 L 448.12,315.30 L 448.03,316.81 L 447.80,319.44 L 447.67,320.69 L 447.39,322.89 L 447.25,323.94 L 446.91,325.80 L 446.56,327.60 L 445.66,330.67 L 444.01,335.30 L 442.94,338.13 L 440.17,343.52 L 438.68,346.17 L 435.15,351.14 L 433.30,353.57 L 429.11,358.05 L 426.95,360.21 L 422.20,364.12 L 419.77,365.99 L 414.58,369.24 L 411.93,370.78 L 406.38,373.30 L 403.56,374.46 L 397.75,376.18 L 388.86,377.77 L 381.66,378.50 L 375.52,386.00 L 375.31,386.26 L 374.71,387.00 L 374.38,387.41 L 373.55,388.43 L 373.11,388.98 L 372.07,390.27 L 371.52,390.94 L 370.28,392.48 L 369.64,393.28 L 368.22,395.05 L 367.48,395.96 L 365.89,397.94 L 364.26,399.97 L 360.55,404.59 L 358.63,406.98 L 354.43,412.21 L 352.28,414.89 L 347.71,420.59 L 345.39,423.48 L 340.57,429.51 L 333.17,438.75 L 330.68,441.86 L 325.86,447.84 L 323.49,450.78 L 319.00,456.32 L 316.80,459.02 L 312.73,464.00 L 310.76,466.41 L 307.21,470.71 L 306.36,471.73 L 304.78,473.63 L 304.01,474.56 L 302.59,476.24 L 301.90,477.06 L 300.67,478.52 L 300.07,479.22 L 299.02,480.43 L 298.53,481.00 L 297.68,481.96 L 297.29,482.40 L 296.67,483.08 L 296.38,483.38 L 295.99,483.77 L 295.67,484.00 L 295.32,484.00 L 294.42,483.65 L 293.97,483.43 L 293.20,482.80 L 292.78,482.38 L 292.29,481.66 L 292.10,481.33 L 292.05,480.84 L 292.08,480.63 L 292.46,480.45 L 293.50,480.64 L 293.77,480.74 L 294.19,480.77 L 294.38,480.75 L 294.65,480.53 L 294.78,480.39 L 294.92,479.90 L 295.02,478.86 L 295.03,476.14 L 295.06,470.32 L 295.07,467.35 L 295.08,461.09 L 295.09,457.92 L 295.09,451.34 L 295.09,448.03 L 295.08,441.25 L 295.07,434.44 L 295.03,420.68 L 295.00,413.86 L 294.92,400.77 L 294.90,397.58 L 294.86,391.48 L 294.83,388.48 L 294.78,382.86 L 294.75,380.12 L 294.70,375.08 L 294.67,372.65 L 294.61,368.32 L 294.58,366.26 L 294.51,362.74 L 294.48,361.10 L 294.41,358.52 L 294.39,357.93 L 294.36,356.96 L 294.34,356.51 L 294.31,355.81 L 294.29,355.50 L 294.26,355.09 L 294.20,354.80 L 294.18,354.78 L 293.91,354.72 L 293.74,354.70 L 293.20,354.65 L 292.59,354.60 L 290.62,354.50 L 289.51,354.45 L 286.63,354.37 L 285.09,354.32 L 281.42,354.24 L 279.49,354.21 L 275.15,354.14 L 272.90,354.11 L 268.00,354.06 L 265.49,354.04 L 260.14,354.01 L 251.75,353.98 L 248.57,353.97 L 242.63,353.95 L 239.74,353.93 L 234.44,353.89 L 231.88,353.86 L 227.27,353.80 L 225.06,353.76 L 221.19,353.68 L 219.36,353.63 L 216.29,353.53 L 214.86,353.48 L 213.49,353.41 L 214.14,353.43 L 215.04,353.46 L 216.94,353.52 L 218.06,353.55 L 220.41,353.60 L 221.74,353.62 L 224.53,353.66 L 226.09,353.68 L 229.33,353.71 L 231.11,353.73 L 234.80,353.76 L 236.81,353.77 L 240.94,353.79 L 243.18,353.80 L 247.77,353.81 L 250.23,353.82 L 255.27,353.83 L 257.97,353.83 L 263.47,353.83 L 266.39,353.83 L 272.35,353.82 L 275.51,353.81 L 281.93,353.80 L 285.32,353.79 L 292.21,353.77 L 295.83,353.76 L 381.50,353.46 L 388.15,351.22 L 392.81,349.42 L 395.77,348.04 L 397.18,347.25 L 399.95,345.62 L 401.27,344.71 L 403.86,342.83 L 405.08,341.80 L 407.48,339.66 L 408.62,338.50 L 410.84,336.12 L 411.88,334.83 L 413.93,332.19 L 414.88,330.78 L 416.75,327.89 L 417.61,326.34 L 419.76,322.35 L 420.91,319.77 L 421.37,318.25 L 421.80,316.67 L 421.99,315.77 L 422.35,313.88 L 422.51,312.79 L 422.80,310.50 L 422.93,309.17 L 423.16,306.36 L 423.26,304.74 L 423.44,301.32 L 423.51,299.35 L 423.64,295.21 L 423.68,292.84 L 423.77,287.88 L 423.80,285.06 L 423.85,279.18 L 423.86,275.86 L 423.88,272.47 L 423.88,270.67 L 423.88,267.01 L 423.88,265.07 L 423.88,261.12 L 423.88,259.03 L 423.88,254.78 L 423.87,252.54 L 423.86,247.98 L 423.85,245.58 L 423.84,240.70 L 423.83,238.13 L 423.81,232.90 L 423.81,230.16 L 423.79,224.58 L 423.78,221.66 L 423.49,137.50 L 421.24,131.58 L 418.33,125.17 L 416.02,121.14 L 414.69,119.26 L 411.94,115.60 L 410.41,113.92 L 407.26,110.68 L 405.55,109.22 L 402.05,106.43 L 400.19,105.22 L 396.40,102.93 L 394.41,101.98 L 390.37,100.23 L 388.27,99.57 L 384.03,98.40 L 381.86,98.05 L 380.78,97.93 L 379.74,97.85 L 379.05,97.82 L 377.59,97.75 L 376.69,97.71 L 374.81,97.64 L 373.72,97.61 L 371.43,97.55 L 370.13,97.52 L 367.45,97.46 L 365.96,97.44 L 362.89,97.38 L 361.21,97.36 L 357.76,97.31 L 355.90,97.29 L 352.09,97.25 L 350.05,97.23 L 345.88,97.19 L 343.66,97.17 L 339.15,97.14 L 336.76,97.13 L 331.90,97.10 L 329.35,97.09 L 324.17,97.07 L 321.46,97.06 L 315.96,97.05 L 313.09,97.04 L 307.29,97.03 L 304.27,97.03 L 298.16,97.02 L 295.00,97.02 L 283.04,97.03 L 275.66,97.04 L 272.24,97.04 L 265.60,97.05 L 262.55,97.06 L 256.61,97.08 L 253.89,97.09 L 248.60,97.11 L 246.20,97.13 L 241.53,97.16 L 239.41,97.17 L 235.32,97.21 L 233.48,97.24 L 229.92,97.28 L 228.32,97.31 L 225.25,97.37 L 223.88,97.40 L 221.26,97.46 L 220.10,97.50 L 217.88,97.58 L 216.91,97.62 L 215.05,97.71 L 214.24,97.76 L 212.70,97.86 L 212.03,97.91 L 210.77,98.03 L 210.23,98.09 L 208.28,98.35 L 207.56,98.51 L 201.50,100.15 L 205.89,98.85 L 207.44,98.51 L 210.02,97.75 L 210.57,97.57 L 211.40,97.23 L 212.05,96.82 L 212.07,96.80 L 212.32,96.74 L 212.48,96.71 L 213.00,96.66 L 213.58,96.60 L 215.50,96.49 L 216.57,96.44 L 219.38,96.33 L 220.88,96.28 L 224.47,96.18 L 226.35,96.13 L 230.60,96.04 L 232.80,96.00 L 237.61,95.93 L 240.07,95.89 L 245.32,95.83 L 253.55,95.76 L 294.50,95.50 L 294.79,85.01 L 294.82,83.89 L 294.86,81.97 L 294.87,81.06 L 294.87,79.54 L 294.87,78.82 L 294.83,77.63 L 294.80,77.07 L 294.72,76.17 L 294.61,75.33 L 294.23,74.29 L 293.35,73.26 L 293.17,73.14 L 293.33,72.92 L 293.51,72.81 L 294.50,72.63 L 295.11,72.55 L 297.08,72.41 L 297.64,72.38 L 298.97,72.32 L 299.67,72.30 L 301.30,72.25 L 302.16,72.22 L 304.11,72.18 L 305.12,72.16 L 307.41,72.13 L 308.60,72.11 L 311.24,72.09 L 312.61,72.07 L 315.63,72.05 L 317.19,72.04 L 320.61,72.03 L 322.37,72.02 L 326.20,72.01 L 328.17,72.01 L 332.44,72.00 L 339.35,72.00 L 342.73,72.00 M 209.43,352.89 L 209.48,352.96 L 209.43,352.89 M 326.20,274.18 L 326.56,274.23 L 326.62,274.29 L 326.83,275.08 L 327.00,276.17 L 327.10,276.93 L 327.29,278.58 L 327.38,279.56 L 327.57,281.59 L 327.66,282.69 L 327.70,288.64 L 327.34,292.53 L 326.99,294.33 L 326.19,297.78 L 325.64,299.21 L 325.07,300.59 L 324.75,301.18 L 324.10,302.30 L 323.75,302.75 L 323.02,303.41 L 322.50,303.63 L 321.42,304.00 L 320.91,304.00 L 319.39,303.43 L 318.45,302.60 L 318.09,302.07 L 317.47,300.97 L 317.35,300.42 L 317.27,299.37 L 317.51,298.98 L 317.84,298.25 L 317.75,298.04 L 317.52,298.08 L 316.93,298.24 L 316.42,298.47 L 315.26,299.02 L 314.44,299.44 L 312.53,300.13 L 311.36,300.26 L 310.85,300.18 L 309.89,299.94 L 309.50,299.71 L 308.78,299.17 L 308.53,298.82 L 308.12,298.07 L 308.05,297.64 L 308.00,296.75 L 308.12,296.28 L 308.48,295.32 L 308.83,294.84 L 309.65,293.90 L 310.25,293.45 L 311.16,292.69 L 311.55,292.26 L 311.63,292.09 L 311.72,291.76 L 311.66,291.63 L 311.46,291.39 L 311.25,291.31 L 310.33,290.28 L 310.03,289.16 L 310.04,288.52 L 310.16,287.21 L 310.37,286.61 L 310.90,285.50 L 311.31,285.16 L 312.12,284.76 L 312.87,284.59 L 313.33,284.55 L 315.32,284.50 L 316.42,284.68 L 320.21,285.30 L 319.86,280.21 L 319.75,278.54 L 319.70,277.63 L 319.70,277.27 L 319.78,276.05 L 319.97,275.69 L 320.46,275.11 L 320.92,274.94 L 322.02,274.66 L 322.85,274.50 L 325.34,274.18 L 325.98,274.16 M 270.42,294.44 L 270.13,293.84 L 270.10,293.74 L 270.16,293.87 L 270.48,294.45 L 271.40,295.37 L 273.01,296.00 L 271.33,295.37 M 270.04,290.61 L 269.84,290.83 L 269.86,290.72 L 270.07,290.46 M 270.00,280.88 L 270.00,281.13 L 269.41,281.66 L 268.00,282.29 L 267.48,282.43 L 266.70,283.26 L 266.36,283.72 L 266.02,284.85 L 265.91,285.40 L 266.09,286.34 L 266.18,286.54 L 266.46,286.82 L 267.07,287.00 L 267.50,287.00 L 268.39,287.43 L 268.81,287.69 L 269.54,288.44 L 269.86,288.83 L 269.95,289.04 L 269.64,289.00 L 269.28,289.00 L 267.34,288.40 L 265.96,287.51 L 265.45,286.94 L 264.40,285.11 L 264.29,283.92 L 264.52,283.39 L 265.14,282.36 L 265.71,281.96 L 267.01,281.23 L 267.90,281.02 L 269.47,280.36 L 270.05,279.85 M 272.04,276.46 L 272.64,275.84 L 272.91,275.64 M 274.78,275.18 L 275.07,275.31 L 274.32,275.14 L 273.88,275.10 L 273.29,275.39 L 273.91,275.00 L 274.20,275.00 M 232.31,193.34 L 232.33,195.44 L 232.31,196.28 L 232.26,197.80 L 232.21,198.27 L 232.09,199.00 L 232.01,199.00 L 231.21,198.71 L 230.19,198.25 L 229.50,197.92 L 228.03,197.22 L 227.20,196.81 L 225.48,195.95 L 225.41,195.92 L 226.51,196.41 L 227.45,196.80 L 228.86,197.19 L 230.48,197.25 L 230.94,197.16 L 231.57,196.82 L 231.84,196.59 L 232.14,195.64 L 232.20,195.34 L 232.26,194.56 L 232.29,194.13 L 232.30,193.05 L 232.30,192.92 M 218.70,188.46 L 217.85,189.65 L 217.50,190.17 L 217.25,190.86 L 217.20,191.16 L 217.51,191.61 L 218.55,192.30 L 219.44,192.81 L 220.68,193.49 L 220.36,193.32 L 219.67,192.95 L 218.40,192.26 L 217.97,192.01 L 217.24,191.58 L 217.16,191.49 L 217.09,190.84 L 217.36,190.20 L 217.62,189.79 L 218.22,188.93 L 218.62,188.45 L 219.36,187.60 M 219.37,187.58 L 219.48,187.46 L 219.98,186.94 L 220.36,186.58 M 231.36,180.06 L 231.55,180.96 L 231.70,182.21 L 231.77,183.09 L 231.81,183.57 L 231.66,182.48 L 231.55,181.71 L 231.29,180.67 L 230.92,180.05 L 231.31,180.00 M 225.99,182.05 L 226.08,181.99 L 226.09,181.99 M 256.10,177.21 L 256.53,177.42 L 257.33,177.95 L 257.57,178.35 L 257.91,179.22 L 257.81,179.74 L 257.44,180.69 L 257.06,181.06 L 256.21,181.72 L 255.74,181.81 L 254.35,181.57 L 253.63,180.96 L 253.42,180.53 L 253.12,179.60 L 253.17,179.13 L 253.42,178.18 L 253.80,177.80 L 255.13,177.17 M 177.70,117.42 L 176.48,119.27 L 174.12,123.11 L 173.05,125.21 L 170.99,129.53 L 171.02,129.46 L 172.89,125.36 L 173.84,123.40 L 175.88,119.99 L 176.93,118.34 L 179.33,115.31 L 179.72,114.90 M 195.10,102.69 L 194.63,102.94 L 195.88,102.27 L 196.50,102.01 M 197.84,101.46 L 199.82,100.64 L 200.91,100.32 Z" fill="rgba(11,57,73,1)"/>
<path d="M 418.33,125.17 L 421.24,131.58 L 423.49,137.50 L 423.78,221.66 L 423.79,224.58 L 423.81,230.16 L 423.81,232.90 L 423.83,238.13 L 423.84,240.70 L 423.85,245.58 L 423.86,247.98 L 423.87,252.54 L 423.88,254.78 L 423.88,259.03 L 423.88,261.12 L 423.88,265.07 L 423.88,267.01 L 423.88,270.67 L 423.88,272.47 L 423.86,275.86 L 423.85,279.18 L 423.80,285.06 L 423.77,287.88 L 423.68,292.84 L 423.64,295.21 L 423.51,299.35 L 423.44,301.32 L 423.26,304.74 L 423.16,306.36 L 422.93,309.17 L 422.80,310.50 L 422.51,312.79 L 422.35,313.88 L 421.99,315.77 L 421.80,316.67 L 421.37,318.25 L 420.91,319.77 L 419.76,322.35 L 417.61,326.34 L 416.75,327.89 L 414.88,330.78 L 413.93,332.19 L 411.88,334.83 L 410.84,336.12 L 408.62,338.50 L 407.48,339.66 L 405.08,341.80 L 403.86,342.83 L 401.27,344.71 L 399.95,345.62 L 397.18,347.25 L 395.77,348.04 L 392.81,349.42 L 388.15,351.22 L 381.50,353.46 L 295.83,353.76 L 292.21,353.77 L 285.32,353.79 L 281.93,353.80 L 275.51,353.81 L 272.35,353.82 L 266.39,353.83 L 263.47,353.83 L 257.97,353.83 L 255.27,353.83 L 250.23,353.82 L 247.77,353.81 L 243.18,353.80 L 240.94,353.79 L 236.81,353.77 L 234.80,353.76 L 231.11,353.73 L 229.33,353.71 L 226.09,353.68 L 224.53,353.66 L 221.74,353.62 L 220.41,353.60 L 218.06,353.55 L 216.94,353.52 L 215.25,353.47 L 216.01,353.44 L 216.65,353.42 L 218.01,353.39 L 218.80,353.37 L 220.47,353.33 L 221.41,353.32 L 223.37,353.28 L 224.45,353.27 L 229.05,353.20 L 231.71,353.18 L 237.24,353.12 L 240.31,353.10 L 246.64,353.06 L 250.04,353.05 L 256.98,353.02 L 260.63,353.01 L 268.04,353.00 L 327.49,353.00 L 299.29,324.75 L 293.61,319.02 L 289.98,315.33 L 288.27,313.57 L 284.92,310.13 L 283.39,308.53 L 280.41,305.43 L 279.09,304.03 L 276.56,301.34 L 275.50,300.18 L 273.50,298.00 L 272.72,297.12 L 271.33,295.53 L 270.89,294.98 L 270.63,294.65 L 271.33,295.37 L 273.01,296.00 L 273.30,296.00 L 274.25,295.68 L 274.77,295.48 L 276.07,294.82 L 277.43,294.09 L 280.52,291.98 L 281.50,291.26 L 283.15,289.85 L 283.94,289.14 L 285.27,287.69 L 285.90,286.95 L 286.98,285.36 L 288.41,282.73 L 288.90,281.70 L 289.70,279.91 L 290.08,279.05 L 290.66,277.60 L 290.93,276.91 L 291.30,275.75 L 291.46,275.21 L 291.62,274.31 L 291.68,273.89 L 291.63,273.22 L 291.59,272.91 L 291.39,272.52 L 292.46,273.36 L 293.06,273.60 L 293.18,273.49 L 293.72,273.44 L 294.42,273.53 L 294.90,273.63 L 297.12,274.13 L 298.46,274.54 L 303.36,275.61 L 306.84,275.99 L 308.66,276.03 L 312.35,275.99 L 314.24,275.82 L 318.04,275.38 L 319.96,275.01 L 323.80,274.18 L 325.71,273.62 L 329.51,272.41 L 331.37,271.67 L 335.05,270.10 L 336.81,269.18 L 340.28,267.27 L 341.91,266.19 L 344.51,264.32 L 346.46,262.80 L 347.47,261.97 L 349.47,260.27 L 350.41,259.42 L 352.24,257.75 L 352.99,256.99 L 356.78,252.76 L 359.34,249.47 L 360.60,247.67 L 363.11,243.97 L 364.30,242.04 L 366.63,238.13 L 367.69,236.17 L 369.75,232.26 L 370.63,230.37 L 372.29,226.66 L 372.93,224.95 L 374.09,221.65 L 374.44,220.22 L 374.75,218.83 L 374.85,218.20 L 374.99,217.00 L 374.99,216.47 L 374.61,213.32 L 374.02,211.40 L 373.60,210.61 L 372.68,209.17 L 372.14,208.71 L 371.03,208.00 L 370.44,208.00 L 369.82,207.81 L 369.49,207.48 L 369.37,207.23 L 369.16,206.66 L 369.09,206.29 L 369.00,205.49 L 369.00,205.00 L 369.34,202.88 L 369.58,202.39 L 369.72,202.24 L 370.01,202.00 L 370.17,202.00 L 370.91,202.49 L 371.87,203.30 L 372.56,203.91 L 374.07,205.28 L 375.02,206.16 L 377.02,208.02 L 378.18,209.12 L 380.60,211.43 L 381.94,212.72 L 384.71,215.38 L 386.20,216.83 L 389.25,219.80 L 390.85,221.38 L 394.10,224.58 L 395.78,226.25 L 400.72,231.15 L 403.88,234.29 L 405.38,235.77 L 408.31,238.67 L 409.66,240.01 L 412.28,242.61 L 413.45,243.76 L 415.69,245.98 L 416.64,246.93 L 418.44,248.70 L 419.14,249.39 L 420.41,250.65 L 420.83,251.06 L 421.51,251.73 L 421.61,251.82 L 422.01,251.74 L 422.23,251.10 L 422.33,250.41 L 422.42,249.65 L 422.46,249.16 L 422.54,248.10 L 422.57,247.45 L 422.64,246.07 L 422.67,245.24 L 422.72,243.51 L 422.75,242.49 L 422.80,240.37 L 422.82,239.15 L 422.86,236.60 L 422.87,235.16 L 422.90,232.17 L 422.92,230.49 L 422.94,227.02 L 422.95,225.09 L 422.97,221.11 L 422.97,218.91 L 422.98,214.38 L 422.99,211.90 L 423.00,206.80 L 423.00,204.03 L 423.00,198.32 L 423.00,195.23 L 423.00,185.45 L 423.00,179.52 L 422.99,176.83 L 422.99,171.62 L 422.98,169.27 L 422.97,164.73 L 422.96,162.70 L 422.94,158.78 L 422.92,157.04 L 422.89,153.69 L 422.87,152.20 L 422.83,149.36 L 422.80,148.11 L 422.75,145.73 L 422.72,144.69 L 422.65,142.71 L 422.61,141.85 L 422.52,140.21 L 422.47,139.51 L 422.26,136.97 L 422.12,136.01 L 421.82,134.27 L 421.63,133.55 L 421.24,132.18 L 421.00,131.49 L 418.34,125.25 L 417.14,123.10 M 209.52,353.03 L 209.52,353.03 L 209.47,352.95 M 325.34,274.18 L 322.85,274.50 L 322.02,274.66 L 320.92,274.94 L 320.46,275.11 L 319.97,275.69 L 319.78,276.05 L 319.70,277.27 L 319.70,277.63 L 319.75,278.54 L 319.86,280.21 L 320.21,285.30 L 316.42,284.68 L 315.32,284.50 L 313.33,284.55 L 312.87,284.59 L 312.12,284.76 L 311.31,285.16 L 310.90,285.50 L 310.37,286.61 L 310.16,287.21 L 310.04,288.52 L 310.03,289.16 L 310.33,290.28 L 311.25,291.31 L 311.46,291.39 L 311.66,291.63 L 311.72,291.76 L 311.63,292.09 L 311.55,292.26 L 311.16,292.69 L 310.25,293.45 L 309.65,293.90 L 308.83,294.84 L 308.48,295.32 L 308.12,296.28 L 308.00,296.75 L 308.05,297.64 L 308.12,298.07 L 308.53,298.82 L 308.78,299.17 L 309.50,299.71 L 309.89,299.94 L 310.85,300.18 L 311.36,300.26 L 312.53,300.13 L 314.44,299.44 L 315.26,299.02 L 316.42,298.47 L 316.93,298.24 L 317.52,298.08 L 317.75,298.04 L 317.84,298.25 L 317.51,298.98 L 317.27,299.37 L 317.35,300.42 L 317.47,300.97 L 318.09,302.07 L 318.45,302.60 L 319.39,303.43 L 320.91,304.00 L 321.42,304.00 L 322.50,303.63 L 323.02,303.41 L 323.75,302.75 L 324.10,302.30 L 324.75,301.18 L 325.07,300.59 L 325.64,299.21 L 326.19,297.78 L 326.99,294.33 L 327.34,292.53 L 327.70,288.64 L 327.66,282.69 L 327.57,281.59 L 327.38,279.56 L 327.29,278.58 L 327.10,276.93 L 327.00,276.17 L 326.83,275.08 L 326.62,274.29 L 326.56,274.23 L 326.20,274.18 L 325.98,274.16 M 270.13,293.84 L 270.32,294.22 L 270.15,293.97 L 270.12,293.88 L 270.08,293.69 M 270.24,290.25 L 269.86,290.72 L 269.70,291.84 L 269.65,291.61 L 269.88,290.52 L 270.27,290.13 L 270.47,289.89 M 279.77,278.41 L 280.36,278.74 L 280.59,278.84 L 281.01,279.00 L 281.12,279.00 L 281.65,278.68 L 282.14,278.21 L 281.21,279.50 L 279.01,277.89 M 271.30,277.25 L 270.61,278.25 L 270.13,279.50 L 270.61,278.24 L 271.31,277.23 L 271.67,276.84 M 274.81,275.16 L 275.34,275.41 L 275.66,275.59 L 277.03,276.45 L 277.10,276.51 L 275.72,275.66 L 275.36,275.46 L 274.78,275.18 L 274.20,275.00 L 274.25,275.00 M 286.49,272.41 L 286.21,272.71 L 285.90,273.11 L 286.36,272.48 L 286.78,272.10 M 289.63,271.26 L 290.72,271.86 L 291.15,272.29 L 289.90,271.47 L 289.32,271.28 L 288.49,271.16 L 289.09,271.05 M 287.26,271.66 L 287.49,271.45 L 287.77,271.34 M 217.16,191.49 L 217.24,191.58 L 217.97,192.01 L 218.40,192.26 L 219.67,192.95 L 220.36,193.32 L 221.98,194.17 L 222.82,194.60 L 224.59,195.50 L 225.48,195.95 L 227.20,196.81 L 228.03,197.22 L 229.50,197.92 L 230.19,198.25 L 231.21,198.71 L 232.01,199.00 L 232.09,199.00 L 232.21,198.27 L 232.26,197.80 L 232.31,196.28 L 232.33,195.44 L 232.31,193.80 L 232.33,193.95 L 232.51,194.93 L 232.92,196.81 L 233.23,197.72 L 233.90,199.53 L 234.36,200.50 L 237.29,205.24 L 239.83,208.26 L 241.30,209.61 L 244.36,212.18 L 245.98,213.21 L 249.26,215.08 L 250.89,215.65 L 256.00,217.47 L 256.00,224.23 L 255.99,226.05 L 255.98,226.86 L 255.94,228.40 L 255.92,229.01 L 255.86,230.12 L 255.83,230.47 L 255.76,231.00 L 255.72,231.00 L 255.16,230.56 L 254.40,229.86 L 253.84,229.33 L 252.63,228.16 L 251.87,227.42 L 250.28,225.85 L 249.36,224.94 L 247.46,223.04 L 246.41,222.00 L 244.28,219.85 L 243.15,218.71 L 238.48,213.99 L 236.08,211.55 L 231.30,206.65 L 229.06,204.35 L 226.86,202.08 L 225.83,201.02 L 223.84,198.95 L 222.95,198.02 L 221.24,196.22 L 220.51,195.45 L 219.15,194.01 L 218.63,193.45 L 217.71,192.43 L 217.43,192.10 L 217.00,191.58 L 217.00,191.54 L 217.12,191.14 M 328.28,199.45 L 324.39,201.20 L 323.07,201.72 L 322.32,201.94 L 320.76,202.32 L 319.92,202.47 L 316.40,202.90 L 314.59,202.92 L 310.99,202.81 L 309.37,202.54 L 307.80,202.25 L 307.11,202.05 L 305.77,201.61 L 305.23,201.34 L 302.15,199.25 L 300.12,197.28 L 299.10,195.98 L 297.04,193.18 L 295.99,191.44 L 293.85,187.72 L 292.74,185.50 L 288.64,178.21 L 285.71,173.77 L 284.22,171.85 L 282.73,169.99 L 281.99,169.15 L 280.52,167.53 L 279.81,166.83 L 278.38,165.50 L 277.70,164.96 L 276.93,164.38 L 277.19,164.54 L 278.25,165.26 L 280.18,166.91 L 282.67,169.64 L 285.41,173.23 L 287.70,170.56 L 288.46,169.68 L 289.42,167.61 L 289.80,166.54 L 290.00,164.13 L 290.00,163.44 L 289.81,162.15 L 289.69,161.52 L 289.27,160.37 L 289.03,159.81 L 288.76,159.39 M 219.98,186.94 L 219.48,187.46 L 218.62,188.45 L 218.22,188.93 L 217.89,189.40 L 218.14,189.01 L 218.64,188.39 L 219.74,187.13 L 220.40,186.49 L 221.61,185.36 M 231.63,181.44 L 231.72,182.12 L 231.88,183.61 L 231.93,184.56 L 231.99,186.02 L 231.92,185.00 L 231.77,183.09 L 231.70,182.21 L 231.59,181.31 M 230.99,180.04 L 230.86,180.06 L 230.59,180.11 L 229.79,180.38 L 226.57,181.75 L 226.08,181.99 L 225.17,182.56 L 225.66,182.19 L 227.15,181.35 L 228.61,180.60 L 229.25,180.37 L 230.48,180.00 L 230.96,180.00 M 273.80,162.57 L 274.98,163.16 L 275.38,163.41 L 272.73,162.09 M 251.67,160.77 L 251.96,160.66 L 252.37,160.54 M 260.66,159.34 L 259.65,159.37 L 256.93,159.55 L 255.58,159.79 L 253.13,160.32 L 254.46,159.92 L 255.72,159.64 L 258.31,159.38 L 259.62,159.29 M 262.27,159.40 L 263.60,159.51 L 263.80,159.54 L 263.75,159.53 L 261.76,159.38 M 284.43,155.00 L 285.95,156.54 L 283.94,155.65 L 283.31,155.44 L 281.93,155.17 L 279.70,155.00 M 275.96,154.63 L 276.39,154.72 L 277.32,154.88 L 277.88,154.92 L 279.07,155.00 L 279.05,155.00 L 277.87,154.92 L 277.31,154.88 L 276.38,154.72 L 275.95,154.63 L 275.37,154.42 L 275.00,154.05 L 275.37,154.42 M 388.27,99.57 L 390.37,100.23 L 394.41,101.98 L 396.40,102.93 L 400.19,105.22 L 402.05,106.43 L 405.55,109.22 L 407.26,110.68 L 407.30,110.72 L 405.77,109.41 L 402.24,106.59 L 400.36,105.36 L 396.52,103.03 L 394.51,102.06 L 390.43,100.27 L 388.31,99.60 L 384.29,98.47 Z" fill="rgba(165,178,59,1)"/>
<path d="M 256.84,231.13 L 257.23,233.00 L 258.07,236.70 L 258.58,238.39 L 259.67,241.63 L 260.27,242.95 L 262.42,246.99 L 264.14,249.71 L 265.11,251.06 L 267.14,253.74 L 268.25,255.04 L 270.52,257.62 L 271.72,258.85 L 274.17,261.25 L 275.44,262.37 L 278.01,264.54 L 279.31,265.51 L 281.92,267.37 L 283.22,268.16 L 285.81,269.65 L 287.07,270.23 L 288.84,271.10 L 288.02,271.25 L 287.49,271.45 L 286.36,272.48 L 284.50,275.00 L 283.81,276.10 L 282.47,277.82 L 282.16,278.19 L 281.65,278.68 L 281.12,279.00 L 281.01,279.00 L 280.59,278.84 L 280.36,278.74 L 279.77,278.41 L 277.73,277.00 L 277.03,276.45 L 275.66,275.59 L 275.34,275.41 L 274.81,275.16 L 274.25,275.00 L 273.95,275.00 L 273.10,275.52 L 272.66,275.84 L 271.75,276.75 L 271.31,277.23 L 270.61,278.24 L 270.13,279.50 L 270.13,279.77 L 269.47,280.36 L 267.90,281.02 L 267.01,281.23 L 265.71,281.96 L 265.14,282.36 L 264.52,283.39 L 264.29,283.92 L 264.40,285.11 L 265.45,286.94 L 265.96,287.51 L 267.36,288.40 L 269.35,289.00 L 269.73,289.00 L 270.26,289.06 L 270.48,289.10 L 270.70,289.25 L 270.77,289.34 L 270.70,289.60 L 270.27,290.13 L 269.88,290.52 L 269.65,291.61 L 270.12,293.88 L 270.15,293.97 L 270.37,294.29 L 270.49,294.48 L 270.89,294.98 L 271.33,295.53 L 272.72,297.12 L 273.50,298.00 L 275.50,300.18 L 276.56,301.34 L 279.09,304.03 L 280.41,305.43 L 283.39,308.53 L 284.92,310.13 L 288.27,313.57 L 289.98,315.33 L 293.61,319.02 L 299.29,324.75 L 327.49,353.00 L 268.04,353.00 L 260.63,353.01 L 256.98,353.02 L 250.04,353.05 L 246.64,353.06 L 240.31,353.10 L 237.24,353.12 L 231.71,353.18 L 229.05,353.20 L 224.45,353.27 L 223.37,353.28 L 221.41,353.32 L 220.47,353.33 L 218.80,353.37 L 218.01,353.39 L 216.65,353.42 L 216.01,353.44 L 214.98,353.48 L 214.52,353.50 L 213.84,353.54 L 213.25,353.60 L 212.37,353.78 L 210.90,353.72 L 210.57,353.68 L 210.06,353.50 L 209.83,353.39 L 209.56,353.10 L 209.47,352.95 L 209.03,352.67 L 208.77,352.54 L 208.07,352.32 L 205.44,352.00 L 204.49,352.00 L 203.01,351.71 L 202.70,351.62 L 202.27,351.39 L 202.00,351.00 L 202.00,350.72 L 201.46,350.29 L 200.15,350.00 L 199.51,350.00 L 197.81,349.49 L 196.91,349.17 L 194.80,348.10 L 193.71,347.51 L 191.37,346.02 L 190.18,345.23 L 187.77,343.44 L 186.57,342.53 L 184.25,340.57 L 183.13,339.59 L 181.09,337.59 L 180.11,336.61 L 178.52,334.71 L 176.80,332.11 L 176.62,331.75 L 176.08,330.78 L 175.79,330.27 L 175.10,329.09 L 172.85,325.50 L 172.43,324.85 L 171.61,323.19 L 171.21,322.31 L 170.47,320.22 L 170.11,319.13 L 169.45,316.64 L 168.56,312.50 L 168.37,311.50 L 168.06,309.28 L 167.91,308.10 L 167.68,305.17 L 167.62,304.37 L 167.52,302.56 L 167.48,301.61 L 167.40,299.44 L 167.36,298.31 L 167.29,295.74 L 167.26,294.40 L 167.21,291.36 L 167.19,289.78 L 167.15,286.22 L 167.14,284.36 L 167.11,280.21 L 167.10,278.05 L 167.09,273.25 L 167.08,270.76 L 167.08,265.25 L 167.08,262.40 L 167.09,256.11 L 167.09,252.87 L 167.11,245.75 L 167.12,242.09 L 167.15,234.08 L 167.19,221.00 L 167.50,138.50 L 170.08,131.88 L 170.99,129.53 L 173.05,125.21 L 174.12,123.11 L 176.48,119.27 L 177.70,117.42 L 180.39,114.07 L 181.77,112.46 L 184.78,109.58 L 186.33,108.20 L 189.68,105.79 L 191.40,104.65 L 195.10,102.69 L 196.99,101.77 L 201.05,100.27 L 207.56,98.51 L 208.28,98.35 L 210.23,98.09 L 210.77,98.03 L 212.03,97.91 L 212.70,97.86 L 214.24,97.76 L 215.05,97.71 L 216.91,97.62 L 217.88,97.58 L 220.10,97.50 L 221.26,97.46 L 223.88,97.40 L 225.25,97.37 L 228.32,97.31 L 229.92,97.28 L 233.48,97.24 L 235.32,97.21 L 239.41,97.17 L 241.53,97.16 L 246.20,97.13 L 248.60,97.11 L 253.89,97.09 L 256.61,97.08 L 262.55,97.06 L 265.60,97.05 L 272.24,97.04 L 275.66,97.04 L 283.04,97.03 L 295.00,97.02 L 298.16,97.02 L 304.27,97.03 L 307.29,97.03 L 313.09,97.04 L 315.96,97.05 L 321.46,97.06 L 324.17,97.07 L 329.35,97.09 L 331.90,97.10 L 336.76,97.13 L 339.15,97.14 L 343.66,97.17 L 345.88,97.19 L 350.05,97.23 L 352.09,97.25 L 355.90,97.29 L 357.76,97.31 L 361.21,97.36 L 362.89,97.38 L 365.96,97.44 L 367.45,97.46 L 370.13,97.52 L 371.43,97.55 L 373.72,97.61 L 374.81,97.64 L 376.69,97.71 L 377.59,97.75 L 379.05,97.82 L 379.74,97.85 L 380.78,97.93 L 381.86,98.05 L 384.04,98.40 L 388.31,99.60 L 390.43,100.27 L 394.51,102.06 L 396.52,103.03 L 400.36,105.36 L 402.24,106.59 L 405.77,109.41 L 407.48,110.88 L 410.63,114.13 L 412.15,115.81 L 414.85,119.44 L 416.14,121.30 L 418.34,125.25 L 421.00,131.49 L 421.24,132.18 L 421.63,133.55 L 421.82,134.27 L 422.12,136.01 L 422.26,136.97 L 422.47,139.51 L 422.52,140.21 L 422.61,141.85 L 422.65,142.71 L 422.72,144.69 L 422.75,145.73 L 422.80,148.11 L 422.83,149.36 L 422.87,152.20 L 422.89,153.69 L 422.92,157.04 L 422.94,158.78 L 422.96,162.70 L 422.97,164.73 L 422.98,169.27 L 422.99,171.62 L 422.99,176.83 L 423.00,179.52 L 423.00,185.45 L 423.00,195.23 L 423.00,198.32 L 423.00,204.03 L 423.00,206.80 L 422.99,211.90 L 422.98,214.38 L 422.97,218.91 L 422.97,221.11 L 422.95,225.09 L 422.94,227.02 L 422.92,230.49 L 422.90,232.17 L 422.87,235.16 L 422.86,236.60 L 422.82,239.15 L 422.80,240.37 L 422.75,242.49 L 422.72,243.51 L 422.67,245.24 L 422.64,246.07 L 422.57,247.45 L 422.54,248.10 L 422.46,249.16 L 422.42,249.65 L 422.33,250.41 L 422.23,251.10 L 422.01,251.74 L 421.61,251.82 L 421.51,251.73 L 420.83,251.06 L 420.41,250.65 L 419.14,249.39 L 418.44,248.70 L 416.64,246.93 L 415.69,245.98 L 413.45,243.76 L 412.28,242.61 L 409.66,240.01 L 409.16,239.52 L 410.65,240.95 L 411.81,242.05 L 413.99,244.08 L 414.86,244.86 L 416.48,246.28 L 417.10,246.78 L 418.22,247.64 L 418.61,247.88 L 419.29,248.24 L 419.49,248.25 L 419.79,248.16 L 419.82,247.96 L 420.32,246.72 L 420.82,246.39 L 421.07,246.54 L 421.18,246.38 L 421.24,246.04 L 421.27,245.75 L 421.34,245.12 L 421.37,244.69 L 421.43,243.76 L 421.46,243.19 L 421.51,241.98 L 421.54,241.27 L 421.59,239.79 L 421.61,238.95 L 421.71,235.33 L 421.75,233.14 L 421.82,228.51 L 421.86,225.84 L 421.91,220.29 L 421.93,217.18 L 421.97,210.75 L 421.98,207.24 L 422.00,200.01 L 422.00,196.12 L 422.00,189.75 L 421.99,185.72 L 421.98,183.82 L 421.97,180.09 L 421.96,178.33 L 421.95,174.89 L 421.94,173.28 L 421.91,170.12 L 421.90,168.65 L 421.87,165.77 L 421.86,164.44 L 421.82,161.84 L 421.80,160.65 L 421.76,158.33 L 421.74,157.27 L 421.70,155.22 L 421.67,154.30 L 421.62,152.52 L 421.59,151.73 L 421.48,148.84 L 421.41,147.78 L 421.27,145.92 L 421.19,145.36 L 421.02,144.51 L 420.93,144.46 L 420.53,143.91 L 420.36,143.33 L 420.32,142.94 L 420.31,141.15 L 420.50,140.00 L 420.68,137.06 L 420.57,136.34 L 420.47,136.09 L 420.23,135.64 L 420.07,135.54 L 419.31,134.25 L 419.00,132.84 L 419.00,132.06 L 418.56,129.71 L 417.91,128.34 L 417.50,128.00 L 416.44,126.61 L 416.00,125.48 L 416.00,125.00 L 415.56,123.39 L 414.91,122.34 L 414.50,122.00 L 413.44,120.79 L 413.00,119.93 L 413.00,119.61 L 412.59,118.64 L 411.94,117.74 L 411.46,117.19 L 410.42,116.05 L 409.79,115.43 L 408.46,114.15 L 407.73,113.49 L 404.64,110.84 L 403.10,109.69 L 401.57,108.58 L 400.86,108.12 L 399.48,107.26 L 398.89,106.96 L 395.64,105.17 L 394.82,104.67 L 394.54,104.47 L 394.07,104.11 L 394.00,104.02 L 392.68,102.88 L 391.32,102.15 L 390.48,101.82 L 388.70,101.18 L 387.72,100.93 L 385.72,100.49 L 384.71,100.36 L 382.49,100.19 L 380.27,100.08 L 378.84,100.03 L 375.77,99.92 L 373.96,99.88 L 370.18,99.78 L 368.07,99.74 L 363.73,99.66 L 361.39,99.62 L 356.61,99.55 L 354.11,99.52 L 343.86,99.41 L 338.65,99.37 L 328.25,99.31 L 323.38,99.31 L 318.60,99.30 L 316.36,99.31 L 311.99,99.32 L 310.02,99.34 L 306.22,99.37 L 304.58,99.40 L 301.48,99.45 L 300.25,99.48 L 298.00,99.55 L 297.25,99.60 L 296.55,99.64 L 296.31,99.67 L 295.88,99.72 L 295.78,99.74 L 295.23,99.83 L 294.66,99.88 L 294.27,99.90 L 292.48,99.99 L 291.23,100.02 L 288.51,100.08 L 286.84,100.10 L 283.30,100.13 L 281.27,100.13 L 277.05,100.14 L 274.72,100.13 L 269.94,100.11 L 267.37,100.09 L 262.14,100.04 L 259.40,100.01 L 253.85,99.93 L 251.00,99.88 L 242.03,99.74 L 236.47,99.67 L 233.91,99.65 L 228.97,99.61 L 226.75,99.61 L 222.48,99.60 L 220.63,99.61 L 217.11,99.63 L 215.65,99.66 L 212.94,99.71 L 211.91,99.75 L 210.08,99.84 L 209.51,99.89 L 208.62,100.01 L 208.55,100.08 L 207.88,100.44 L 207.19,100.65 L 206.76,100.73 L 204.84,101.00 L 203.80,101.00 L 200.46,101.51 L 198.65,102.35 L 198.00,103.00 L 196.27,104.41 L 195.21,105.00 L 194.90,105.00 L 193.37,105.46 L 192.03,106.17 L 191.26,106.68 L 189.66,107.80 L 188.82,108.46 L 187.12,109.84 L 186.28,110.58 L 184.64,112.08 L 183.90,112.83 L 182.47,114.32 L 181.89,115.00 L 180.84,116.32 L 180.51,116.87 L 180.00,117.89 L 180.00,118.24 L 179.72,119.22 L 179.29,120.07 L 178.97,120.56 L 177.46,122.60 L 176.50,123.57 L 174.03,126.58 L 173.45,127.53 L 173.28,127.93 L 173.00,128.67 L 173.00,128.92 L 172.84,129.99 L 172.60,130.95 L 172.42,131.52 L 171.57,133.94 L 171.02,135.14 L 170.39,136.81 L 170.04,138.22 L 169.90,139.28 L 169.77,140.42 L 169.71,141.11 L 169.60,142.60 L 169.55,143.50 L 169.46,145.42 L 169.42,146.57 L 169.34,149.00 L 169.31,150.44 L 169.25,153.46 L 169.22,155.22 L 169.18,158.91 L 169.16,161.03 L 169.12,165.47 L 169.11,168.00 L 169.08,173.26 L 169.07,176.24 L 169.06,182.41 L 169.05,185.87 L 169.04,193.03 L 169.04,197.01 L 169.03,201.06 L 169.03,203.19 L 169.03,207.51 L 169.03,209.79 L 169.02,214.40 L 169.02,216.82 L 169.02,221.74 L 169.02,224.31 L 169.03,242.02 L 169.05,247.62 L 169.05,250.32 L 169.07,255.65 L 169.08,258.21 L 169.10,263.24 L 169.11,265.65 L 169.14,270.37 L 169.15,272.60 L 169.19,276.99 L 169.20,279.05 L 169.24,283.08 L 169.26,284.95 L 169.30,288.60 L 169.32,290.27 L 169.36,293.51 L 169.38,294.98 L 169.43,297.80 L 169.46,299.04 L 169.51,301.42 L 169.53,302.43 L 169.59,304.34 L 169.62,305.11 L 169.67,306.53 L 169.70,307.05 L 169.76,307.96 L 169.79,308.21 L 169.85,308.59 L 169.89,308.57 L 170.68,308.79 L 171.16,309.62 L 171.35,310.32 L 171.70,311.88 L 171.81,312.88 L 171.98,314.99 L 171.99,316.19 L 172.27,318.97 L 172.45,319.68 L 172.56,319.94 L 172.80,320.37 L 172.92,320.45 L 173.34,320.93 L 173.63,321.46 L 173.78,321.81 L 174.34,323.37 L 174.53,324.26 L 175.71,327.28 L 176.95,329.31 L 177.61,330.00 L 178.86,331.35 L 179.92,332.50 L 180.51,333.16 L 183.00,335.94 L 184.13,337.25 L 186.25,339.52 L 187.45,340.62 L 187.99,340.99 L 189.05,341.61 L 189.57,341.77 L 190.61,342.00 L 191.16,342.00 L 192.66,342.21 L 193.68,342.56 L 194.21,342.85 L 195.28,343.50 L 195.84,343.94 L 196.97,344.90 L 197.57,345.50 L 199.31,347.07 L 200.41,347.87 L 200.94,348.16 L 201.98,348.66 L 202.50,348.79 L 203.52,349.00 L 204.03,349.00 L 206.13,349.29 L 206.62,349.49 L 206.77,349.61 L 207.00,349.85 L 207.00,349.99 L 207.76,350.22 L 209.02,350.36 L 210.02,350.43 L 212.26,350.56 L 213.74,350.62 L 216.93,350.74 L 218.87,350.79 L 222.98,350.89 L 225.38,350.94 L 230.39,351.03 L 233.22,351.06 L 239.10,351.13 L 242.36,351.16 L 249.08,351.22 L 252.75,351.24 L 258.99,351.27 L 262.01,351.28 L 267.96,351.29 L 270.77,351.29 L 276.29,351.28 L 278.85,351.27 L 283.80,351.25 L 286.02,351.23 L 290.28,351.19 L 292.11,351.17 L 295.54,351.11 L 296.90,351.08 L 298.19,351.05 L 298.74,351.03 L 299.77,350.99 L 300.19,350.97 L 300.94,350.93 L 301.21,350.91 L 301.67,350.87 L 301.78,350.85 L 305.24,350.54 L 307.89,350.58 L 308.96,350.72 L 310.93,350.87 L 312.53,350.90 L 313.40,350.88 L 317.02,350.73 L 318.59,350.53 L 324.30,349.82 L 298.91,324.41 L 293.77,319.30 L 290.48,316.06 L 288.92,314.54 L 285.86,311.58 L 284.45,310.23 L 281.71,307.62 L 280.48,306.46 L 278.13,304.27 L 277.12,303.35 L 275.23,301.65 L 274.49,301.00 L 273.13,299.86 L 272.69,299.52 L 271.94,299.00 L 271.83,299.00 L 269.98,298.51 L 268.89,297.74 L 268.44,297.18 L 267.64,295.97 L 267.39,295.25 L 267.00,293.74 L 267.00,292.93 L 266.90,291.55 L 266.74,290.88 L 266.59,290.65 L 266.26,290.26 L 266.02,290.15 L 265.50,290.00 L 265.16,290.00 L 263.71,289.37 L 262.77,288.40 L 262.37,287.74 L 261.62,286.31 L 261.38,285.52 L 261.00,283.90 L 261.00,283.11 L 261.63,281.72 L 262.57,280.80 L 263.22,280.39 L 264.59,279.64 L 265.34,279.39 L 266.84,279.00 L 267.55,279.00 L 268.57,278.42 L 269.00,277.57 L 269.00,277.02 L 269.75,275.14 L 270.84,273.84 L 271.54,273.38 L 272.91,272.60 L 273.70,272.31 L 274.07,272.27 L 274.82,272.26 L 275.23,272.36 L 276.07,272.62 L 276.57,272.85 L 278.50,274.09 L 279.48,275.08 L 279.64,275.49 L 280.31,276.65 L 280.80,276.98 L 281.05,276.92 L 281.53,276.65 L 281.75,276.30 L 282.17,275.46 L 282.34,274.82 L 282.33,272.51 L 281.77,270.85 L 281.24,269.99 L 280.01,268.28 L 279.17,267.43 L 277.35,265.77 L 276.24,265.00 L 273.99,263.29 L 272.31,261.88 L 271.42,261.09 L 267.79,257.74 L 266.09,256.03 L 264.44,254.34 L 263.71,253.55 L 262.33,252.01 L 261.78,251.35 L 260.78,250.10 L 260.48,249.63 L 260.00,248.81 L 260.00,248.59 L 259.72,246.86 L 259.31,245.43 L 259.05,244.80 L 258.54,243.41 L 258.10,242.11 L 257.86,241.34 L 256.81,237.96 L 256.32,236.24 L 254.98,232.36 L 254.37,231.18 L 253.96,230.56 L 253.06,229.26 L 252.45,228.51 L 251.12,226.93 L 250.25,225.98 L 248.35,223.95 L 247.94,223.53 L 249.36,224.94 L 250.28,225.85 L 251.87,227.42 L 252.63,228.16 L 253.84,229.33 L 254.40,229.86 L 255.16,230.56 L 255.72,231.00 L 255.76,231.00 L 255.83,230.47 L 255.86,230.12 L 255.92,229.01 L 255.94,228.40 L 255.98,226.86 L 255.99,226.05 L 256.00,224.23 L 256.00,222.05 L 256.33,227.36 M 318.04,275.38 L 316.80,275.52 L 318.05,275.38 M 340.28,267.27 L 336.81,269.18 L 335.05,270.10 L 331.37,271.67 L 329.51,272.41 L 325.71,273.62 L 323.80,274.18 L 319.96,275.01 L 318.47,275.30 L 319.97,275.01 L 323.81,274.17 L 325.72,273.61 L 329.52,272.40 L 331.37,271.66 L 335.05,270.09 L 336.81,269.18 L 340.28,267.27 M 293.06,273.60 L 293.01,273.58 L 293.09,273.57 M 349.84,186.60 L 352.96,186.78 L 354.46,187.03 L 355.05,187.29 L 356.17,187.90 L 356.72,188.40 L 357.86,189.54 L 358.57,190.37 L 360.19,192.05 L 361.19,192.89 L 361.67,193.18 L 362.63,193.67 L 363.13,193.81 L 364.13,194.00 L 364.67,194.00 L 367.36,194.70 L 369.17,195.78 L 370.00,196.54 L 371.58,198.20 L 372.19,199.16 L 373.26,201.15 L 373.52,202.17 L 374.06,203.16 L 374.79,204.17 L 375.34,204.84 L 376.56,206.29 L 377.34,207.17 L 379.02,209.04 L 380.02,210.13 L 382.13,212.39 L 383.34,213.67 L 385.87,216.30 L 387.28,217.75 L 390.19,220.73 L 390.33,220.87 L 389.25,219.80 L 386.20,216.83 L 384.71,215.38 L 381.94,212.72 L 380.60,211.43 L 378.18,209.12 L 377.02,208.02 L 375.02,206.16 L 374.07,205.28 L 372.56,203.91 L 371.87,203.30 L 370.91,202.49 L 370.17,202.00 L 370.01,202.00 L 369.72,202.24 L 369.58,202.39 L 369.34,202.88 L 369.00,205.00 L 369.00,204.58 L 368.82,201.69 L 368.69,200.81 L 368.62,200.44 L 368.46,199.77 L 368.38,199.54 L 367.12,197.95 L 365.74,196.93 L 364.89,196.49 L 363.11,195.68 L 362.19,195.42 L 360.37,195.00 L 359.55,195.00 L 357.73,194.62 L 357.00,194.05 L 357.00,193.67 L 356.81,192.98 L 356.50,192.39 L 356.28,192.06 L 355.21,190.67 L 354.54,190.03 L 353.07,188.79 L 352.24,188.32 L 351.78,188.25 L 350.80,188.21 L 350.14,188.34 L 348.68,188.67 L 347.64,188.96 L 345.38,189.80 L 343.52,190.64 L 342.50,191.16 L 338.24,193.47 L 336.35,194.71 L 333.08,196.78 L 331.02,198.00 L 330.04,198.53 L 328.25,199.42 L 316.13,187.13 L 317.44,188.46 L 318.25,189.27 L 319.80,190.81 L 320.49,191.48 L 321.81,192.74 L 322.40,193.27 L 323.52,194.27 L 324.02,194.68 L 324.97,195.43 L 325.40,195.71 L 326.21,196.23 L 326.58,196.40 L 327.96,196.88 L 328.56,196.83 L 329.74,196.53 L 330.34,196.13 L 331.58,195.17 L 332.30,194.49 L 333.84,193.00 L 334.81,192.09 L 336.54,190.66 L 337.63,189.95 L 338.18,189.70 L 339.27,189.28 L 339.85,189.17 L 341.02,189.00 L 341.67,189.00 L 343.23,188.93 L 343.99,188.80 L 344.24,188.69 L 344.66,188.46 L 344.74,188.30 L 344.81,187.95 L 344.73,187.73 L 344.79,187.14 L 345.19,186.86 L 345.59,186.78 L 346.54,186.63 L 347.24,186.60 L 348.80,186.58 M 232.92,176.03 L 233.25,176.21 L 233.34,176.37 L 233.44,176.75 L 233.39,177.01 L 233.23,177.58 L 233.04,177.93 L 232.63,179.30 L 232.40,180.71 L 232.31,181.60 L 232.14,183.46 L 232.09,184.50 L 232.01,186.61 L 232.01,187.68 L 232.12,191.71 L 232.29,193.58 L 232.12,191.73 L 232.01,187.75 L 232.01,186.58 L 231.93,184.56 L 231.88,183.61 L 231.72,182.12 L 231.63,181.44 L 231.39,180.55 L 230.96,180.00 L 230.48,180.00 L 229.25,180.37 L 228.61,180.60 L 227.15,181.35 L 225.66,182.19 L 222.54,184.57 L 221.78,185.20 L 220.40,186.49 L 219.74,187.13 L 218.64,188.39 L 218.14,189.01 L 217.44,190.13 L 217.00,191.54 L 217.00,191.58 L 217.43,192.10 L 217.71,192.43 L 218.63,193.45 L 219.15,194.01 L 220.51,195.45 L 221.24,196.22 L 222.95,198.02 L 223.84,198.95 L 225.83,201.02 L 226.86,202.08 L 229.06,204.35 L 231.30,206.65 L 236.08,211.55 L 238.48,213.99 L 239.35,214.86 L 238.49,214.02 L 237.46,212.99 L 230.70,206.39 L 228.62,204.41 L 227.66,203.51 L 225.78,201.76 L 224.94,200.99 L 223.32,199.52 L 222.62,198.91 L 221.31,197.77 L 220.78,197.34 L 219.82,196.57 L 219.50,196.35 L 218.95,196.00 L 218.84,196.00 L 217.00,195.39 L 215.88,194.47 L 215.43,193.83 L 214.62,192.45 L 214.40,191.68 L 214.09,190.11 L 214.18,189.34 L 214.75,187.40 L 215.04,186.98 L 215.19,186.86 L 215.52,186.69 L 215.68,186.73 L 216.24,186.58 L 216.67,186.26 L 216.90,186.01 L 217.81,184.79 L 218.17,183.98 L 219.68,181.77 L 220.89,181.00 L 221.55,181.00 L 222.62,180.80 L 223.51,180.49 L 224.00,180.27 L 226.07,179.19 L 227.00,178.50 L 229.94,176.69 L 231.59,176.02 L 232.18,175.97 L 232.72,175.96 M 369.81,207.79 L 369.81,207.79 L 369.78,207.77 M 309.37,202.54 L 310.99,202.81 L 314.59,202.92 L 316.40,202.90 L 319.54,202.51 L 319.38,202.54 L 316.06,203.00 L 314.36,203.00 L 310.81,202.82 L 308.67,202.49 L 307.95,202.28 M 326.25,200.43 L 325.32,200.78 L 327.49,199.81 M 304.14,200.60 L 303.17,200.02 L 302.71,199.63 M 232.50,194.91 L 232.64,195.53 L 232.51,194.93 L 232.33,193.95 L 232.33,193.94 M 298.44,195.09 L 298.28,194.88 L 298.08,194.60 M 295.81,191.13 L 295.79,191.09 L 294.91,189.56 L 294.80,189.36 M 292.74,185.50 L 293.58,187.18 L 293.12,186.36 L 292.16,184.50 L 290.80,182.05 M 268.13,145.07 L 268.74,145.24 L 269.88,145.72 L 270.46,146.18 L 271.69,147.27 L 272.52,148.10 L 274.94,150.86 L 275.51,151.66 L 275.69,151.98 L 275.96,152.56 L 275.97,152.72 L 276.16,153.23 L 276.48,153.44 L 276.72,153.50 L 277.28,153.57 L 277.64,153.54 L 278.44,153.46 L 278.93,153.36 L 280.45,153.25 L 281.65,153.33 L 282.31,153.43 L 285.07,154.01 L 286.43,154.53 L 288.77,155.52 L 289.83,156.12 L 290.16,156.44 L 290.70,157.11 L 290.83,157.52 L 291.00,158.40 L 291.00,158.96 L 291.18,159.88 L 291.51,160.63 L 291.79,161.10 L 292.45,162.09 L 292.91,162.70 L 293.94,164.00 L 294.62,164.78 L 296.09,166.45 L 297.00,167.45 L 298.96,169.56 L 300.14,170.80 L 302.65,173.41 L 304.13,174.93 L 307.23,178.10 L 309.03,179.92 L 312.57,183.51 L 314.68,185.66 L 314.80,185.78 L 284.43,155.00 L 279.07,155.00 L 277.88,154.92 L 277.32,154.88 L 276.39,154.72 L 275.96,154.63 L 275.37,154.42 L 275.00,154.05 L 275.00,153.86 L 274.78,153.35 L 274.64,153.08 L 274.18,152.45 L 273.67,151.79 L 272.17,150.31 L 271.38,149.58 L 269.64,148.26 L 267.26,146.91 L 266.28,146.54 L 264.16,146.33 L 263.09,146.32 L 260.91,146.80 L 259.82,147.12 L 257.71,148.24 L 254.79,150.59 L 254.14,151.26 L 253.01,152.25 L 252.45,152.69 L 251.39,153.29 L 250.86,153.55 L 249.70,153.83 L 247.68,153.99 L 246.46,153.99 L 244.45,154.26 L 243.50,154.45 L 241.96,155.13 L 241.23,155.53 L 240.03,156.71 L 238.45,159.10 L 238.10,159.77 L 237.69,161.62 L 237.52,162.58 L 237.47,164.56 L 237.48,165.50 L 237.78,166.99 L 237.87,167.30 L 238.13,167.73 L 238.60,168.00 L 238.66,168.00 L 239.17,167.73 L 239.48,167.56 L 240.38,166.99 L 240.88,166.68 L 242.06,165.90 L 242.58,165.55 L 241.63,166.29 L 240.73,167.13 L 238.96,168.88 L 238.13,169.86 L 236.50,171.88 L 235.74,173.00 L 234.96,174.09 L 234.63,174.49 L 234.55,174.53 L 234.44,174.50 L 234.46,174.33 L 234.56,173.88 L 234.68,173.50 L 235.38,171.76 L 235.94,170.69 L 236.17,170.38 L 236.63,169.05 L 236.56,168.07 L 236.36,167.62 L 235.89,166.76 L 235.54,166.47 L 234.77,166.00 L 234.32,166.00 L 233.63,165.94 L 233.40,165.83 L 233.41,165.71 L 233.51,165.45 L 233.68,165.24 L 234.10,164.76 L 234.43,164.43 L 235.54,162.50 L 236.00,160.85 L 236.00,160.08 L 236.31,158.53 L 236.79,157.47 L 237.16,156.95 L 237.96,155.92 L 238.46,155.43 L 239.51,154.46 L 240.11,154.02 L 242.69,152.38 L 244.11,151.85 L 245.54,151.37 L 246.26,151.22 L 247.68,151.00 L 248.37,151.00 L 249.57,150.80 L 250.50,150.49 L 250.99,150.26 L 253.00,149.18 L 253.82,148.50 L 255.53,147.30 L 256.80,146.66 L 257.52,146.41 L 259.05,145.95 L 259.94,145.78 L 261.84,145.46 L 262.95,145.35 L 264.95,145.15 L 266.06,145.06 L 266.52,145.05 M 280.52,167.53 L 280.58,167.60 L 280.23,167.25 M 275.72,163.57 L 276.35,163.95 L 277.70,164.96 L 278.38,165.50 L 278.90,165.98 L 277.95,165.24 L 275.52,163.47 M 248.93,161.79 L 248.99,161.76 L 249.08,161.73 M 263.75,159.53 L 265.11,159.69 L 267.82,160.29 L 269.17,160.64 L 269.88,160.90 L 267.01,160.12 L 265.45,159.90 L 262.26,159.56 L 260.56,159.56 L 256.77,159.76 L 254.33,160.11 L 253.16,160.39 L 251.33,160.90 L 251.59,160.80 L 252.90,160.37 L 255.58,159.79 L 256.93,159.55 L 259.65,159.37 L 261.01,159.33 Z" fill="rgba(184,210,69,1)"/>
<path d="M 323.38,99.31 L 328.25,99.31 L 338.65,99.37 L 343.86,99.41 L 354.11,99.52 L 356.61,99.55 L 361.39,99.62 L 363.73,99.66 L 368.07,99.74 L 370.18,99.78 L 373.96,99.88 L 375.77,99.92 L 378.84,100.03 L 380.27,100.08 L 382.49,100.19 L 384.71,100.36 L 385.72,100.49 L 387.72,100.93 L 388.70,101.18 L 390.48,101.82 L 391.32,102.15 L 392.68,102.88 L 394.00,104.02 L 394.07,104.11 L 394.54,104.47 L 394.82,104.67 L 395.64,105.17 L 398.89,106.96 L 399.48,107.26 L 400.86,108.12 L 401.57,108.58 L 403.10,109.69 L 404.64,110.84 L 407.73,113.49 L 408.46,114.15 L 409.79,115.43 L 410.42,116.05 L 411.46,117.19 L 411.94,117.74 L 412.59,118.64 L 413.00,119.61 L 413.00,119.93 L 413.44,120.79 L 414.50,122.00 L 414.91,122.34 L 415.56,123.39 L 416.00,125.00 L 416.00,125.48 L 416.44,126.61 L 417.50,128.00 L 417.91,128.34 L 418.56,129.71 L 419.00,132.06 L 419.00,132.84 L 419.31,134.25 L 420.07,135.54 L 420.23,135.64 L 420.47,136.09 L 420.57,136.34 L 420.68,137.06 L 420.50,140.00 L 420.31,141.15 L 420.32,142.94 L 420.36,143.33 L 420.53,143.91 L 420.93,144.46 L 421.02,144.51 L 421.19,145.36 L 421.27,145.92 L 421.41,147.78 L 421.48,148.84 L 421.59,151.73 L 421.62,152.52 L 421.67,154.30 L 421.70,155.22 L 421.74,157.27 L 421.76,158.33 L 421.80,160.65 L 421.82,161.84 L 421.86,164.44 L 421.87,165.77 L 421.90,168.65 L 421.91,170.12 L 421.94,173.28 L 421.95,174.89 L 421.96,178.33 L 421.97,180.09 L 421.98,183.82 L 421.99,185.72 L 422.00,189.75 L 422.00,196.12 L 422.00,200.01 L 421.98,207.24 L 421.97,210.75 L 421.93,217.18 L 421.91,220.29 L 421.86,225.84 L 421.82,228.51 L 421.75,233.14 L 421.71,235.33 L 421.61,238.95 L 421.59,239.79 L 421.54,241.27 L 421.51,241.98 L 421.46,243.19 L 421.43,243.76 L 421.37,244.69 L 421.34,245.12 L 421.27,245.75 L 421.24,246.04 L 421.18,246.38 L 421.07,246.54 L 420.82,246.39 L 420.32,246.72 L 419.82,247.96 L 419.79,248.16 L 419.49,248.25 L 419.29,248.24 L 418.61,247.88 L 418.22,247.64 L 417.10,246.78 L 416.48,246.28 L 414.86,244.86 L 413.99,244.08 L 411.81,242.05 L 410.65,240.95 L 407.85,238.25 L 406.37,236.82 L 402.89,233.40 L 401.97,232.50 L 400.01,230.55 L 396.84,227.40 L 395.07,225.64 L 391.79,222.34 L 390.19,220.73 L 387.28,217.75 L 385.87,216.30 L 383.34,213.67 L 382.13,212.39 L 380.02,210.13 L 379.02,209.04 L 377.34,207.17 L 376.56,206.29 L 375.34,204.84 L 374.79,204.17 L 374.06,203.16 L 373.52,202.17 L 373.26,201.15 L 372.19,199.16 L 371.58,198.20 L 370.00,196.54 L 369.17,195.78 L 367.36,194.70 L 364.67,194.00 L 364.13,194.00 L 363.13,193.81 L 362.63,193.67 L 361.67,193.18 L 361.19,192.89 L 360.19,192.05 L 358.57,190.37 L 357.86,189.54 L 356.72,188.40 L 356.17,187.90 L 355.05,187.29 L 354.46,187.03 L 352.96,186.78 L 349.84,186.60 L 348.80,186.58 L 347.24,186.60 L 346.54,186.63 L 345.59,186.78 L 345.19,186.86 L 344.79,187.14 L 344.73,187.73 L 344.81,187.95 L 344.74,188.30 L 344.66,188.46 L 344.24,188.69 L 343.99,188.80 L 343.23,188.93 L 341.67,189.00 L 341.02,189.00 L 339.85,189.17 L 339.27,189.28 L 338.18,189.70 L 337.63,189.95 L 336.54,190.66 L 334.81,192.09 L 333.84,193.00 L 332.30,194.49 L 331.58,195.17 L 330.34,196.13 L 329.74,196.53 L 328.56,196.83 L 327.96,196.88 L 326.58,196.40 L 326.21,196.23 L 325.40,195.71 L 324.97,195.43 L 324.02,194.68 L 323.52,194.27 L 322.40,193.27 L 321.81,192.74 L 320.49,191.48 L 319.80,190.81 L 318.25,189.27 L 317.44,188.46 L 315.62,186.62 L 314.68,185.66 L 312.57,183.51 L 309.03,179.92 L 307.23,178.10 L 304.13,174.93 L 302.65,173.41 L 300.14,170.80 L 298.96,169.56 L 297.00,167.45 L 296.09,166.45 L 294.62,164.78 L 293.94,164.00 L 292.91,162.70 L 292.45,162.09 L 291.79,161.10 L 291.51,160.63 L 291.18,159.88 L 291.00,158.96 L 291.00,158.40 L 290.83,157.52 L 290.70,157.11 L 290.16,156.44 L 289.83,156.12 L 288.77,155.52 L 286.43,154.53 L 285.07,154.01 L 282.31,153.43 L 281.65,153.33 L 280.45,153.25 L 278.93,153.36 L 278.44,153.46 L 277.64,153.54 L 277.28,153.57 L 276.72,153.50 L 276.48,153.44 L 276.16,153.23 L 275.97,152.72 L 275.96,152.56 L 275.69,151.98 L 275.51,151.66 L 274.94,150.86 L 272.52,148.10 L 271.69,147.27 L 270.46,146.18 L 269.88,145.72 L 268.74,145.24 L 268.13,145.07 L 266.52,145.05 L 266.06,145.06 L 264.95,145.15 L 262.95,145.35 L 261.84,145.46 L 259.94,145.78 L 259.05,145.95 L 257.52,146.41 L 256.80,146.66 L 255.53,147.30 L 253.82,148.50 L 253.00,149.18 L 250.99,150.26 L 250.50,150.49 L 249.57,150.80 L 248.37,151.00 L 247.68,151.00 L 246.26,151.22 L 245.54,151.37 L 244.11,151.85 L 242.69,152.38 L 240.11,154.02 L 239.51,154.46 L 238.46,155.43 L 237.96,155.92 L 237.16,156.95 L 236.79,157.47 L 236.31,158.53 L 236.00,160.08 L 236.00,160.85 L 235.54,162.50 L 234.43,164.43 L 234.10,164.76 L 233.68,165.24 L 233.51,165.45 L 233.41,165.71 L 233.40,165.83 L 233.63,165.94 L 234.32,166.00 L 234.77,166.00 L 235.54,166.47 L 235.89,166.76 L 236.36,167.62 L 236.56,168.07 L 236.63,169.05 L 236.17,170.38 L 235.94,170.69 L 235.38,171.76 L 234.68,173.50 L 234.56,173.88 L 234.46,174.33 L 234.44,174.50 L 234.55,174.53 L 234.63,174.49 L 234.96,174.09 L 235.74,173.00 L 236.50,171.88 L 238.13,169.86 L 238.96,168.88 L 240.73,167.13 L 241.63,166.29 L 243.53,164.82 L 244.50,164.12 L 246.54,162.92 L 247.58,162.36 L 249.46,161.57 L 248.71,161.92 L 245.43,163.64 L 243.91,164.75 L 240.93,167.14 L 239.58,168.57 L 236.99,171.60 L 235.86,173.35 L 234.64,175.26 L 233.97,176.36 L 233.71,176.85 L 232.82,178.66 L 233.04,177.93 L 233.23,177.58 L 233.39,177.01 L 233.44,176.75 L 233.34,176.37 L 233.25,176.21 L 232.92,176.03 L 232.72,175.96 L 232.18,175.97 L 231.59,176.02 L 229.94,176.69 L 227.00,178.50 L 226.07,179.19 L 224.00,180.27 L 223.51,180.49 L 222.62,180.80 L 221.55,181.00 L 220.89,181.00 L 219.68,181.77 L 218.17,183.98 L 217.81,184.79 L 216.90,186.01 L 216.67,186.26 L 216.24,186.58 L 215.68,186.73 L 215.52,186.69 L 215.19,186.86 L 215.04,186.98 L 214.75,187.40 L 214.18,189.34 L 214.09,190.11 L 214.40,191.68 L 214.62,192.45 L 215.43,193.83 L 215.88,194.47 L 217.00,195.39 L 218.84,196.00 L 218.95,196.00 L 219.50,196.35 L 219.82,196.57 L 220.78,197.34 L 221.31,197.77 L 222.62,198.91 L 223.32,199.52 L 224.94,200.99 L 225.78,201.76 L 227.66,203.51 L 228.62,204.41 L 230.70,206.39 L 237.46,212.99 L 238.49,214.02 L 240.38,215.89 L 241.29,216.80 L 242.95,218.46 L 243.75,219.26 L 245.20,220.72 L 245.90,221.43 L 247.15,222.71 L 248.35,223.95 L 250.25,225.98 L 251.12,226.93 L 252.45,228.51 L 253.06,229.26 L 253.96,230.56 L 254.37,231.18 L 254.98,232.36 L 256.32,236.24 L 256.81,237.96 L 257.86,241.34 L 258.10,242.11 L 258.54,243.41 L 259.05,244.80 L 259.31,245.43 L 259.72,246.86 L 260.00,248.59 L 260.00,248.81 L 260.48,249.63 L 260.78,250.10 L 261.78,251.35 L 262.33,252.01 L 263.71,253.55 L 264.44,254.34 L 266.09,256.03 L 267.79,257.74 L 271.42,261.09 L 272.31,261.88 L 273.99,263.29 L 276.24,265.00 L 277.35,265.77 L 279.17,267.43 L 280.01,268.28 L 281.24,269.99 L 281.77,270.85 L 282.33,272.51 L 282.34,274.82 L 282.17,275.46 L 281.75,276.30 L 281.53,276.65 L 281.05,276.92 L 280.80,276.98 L 280.31,276.65 L 279.64,275.49 L 279.48,275.08 L 278.50,274.09 L 276.57,272.85 L 276.07,272.62 L 275.23,272.36 L 274.82,272.26 L 274.07,272.27 L 273.70,272.31 L 272.91,272.60 L 271.54,273.38 L 270.84,273.84 L 269.75,275.14 L 269.00,277.02 L 269.00,277.57 L 268.57,278.42 L 267.55,279.00 L 266.84,279.00 L 265.34,279.39 L 264.59,279.64 L 263.22,280.39 L 262.57,280.80 L 261.63,281.72 L 261.00,283.11 L 261.00,283.90 L 261.38,285.52 L 261.62,286.31 L 262.37,287.74 L 262.77,288.40 L 263.71,289.37 L 265.16,290.00 L 265.50,290.00 L 266.02,290.15 L 266.26,290.26 L 266.59,290.65 L 266.74,290.88 L 266.90,291.55 L 267.00,292.93 L 267.00,293.74 L 267.39,295.25 L 267.64,295.97 L 268.44,297.18 L 268.89,297.74 L 269.98,298.51 L 271.83,299.00 L 271.94,299.00 L 272.69,299.52 L 273.13,299.86 L 274.49,301.00 L 275.23,301.65 L 277.12,303.35 L 278.13,304.27 L 280.48,306.46 L 281.71,307.62 L 284.45,310.23 L 285.86,311.58 L 288.92,314.54 L 290.48,316.06 L 293.77,319.30 L 298.91,324.41 L 324.30,349.82 L 318.59,350.53 L 317.02,350.73 L 313.40,350.88 L 312.53,350.90 L 310.93,350.87 L 308.96,350.72 L 307.89,350.58 L 305.24,350.54 L 301.78,350.85 L 301.67,350.87 L 301.21,350.91 L 300.94,350.93 L 300.19,350.97 L 299.77,350.99 L 298.74,351.03 L 298.19,351.05 L 296.90,351.08 L 295.54,351.11 L 292.11,351.17 L 290.28,351.19 L 286.02,351.23 L 283.80,351.25 L 278.85,351.27 L 276.29,351.28 L 270.77,351.29 L 267.96,351.29 L 262.01,351.28 L 258.99,351.27 L 252.75,351.24 L 249.08,351.22 L 242.36,351.16 L 239.10,351.13 L 233.22,351.06 L 230.39,351.03 L 225.38,350.94 L 222.98,350.89 L 218.87,350.79 L 216.93,350.74 L 213.74,350.62 L 212.26,350.56 L 210.02,350.43 L 209.02,350.36 L 207.76,350.22 L 207.00,349.99 L 207.00,349.85 L 206.77,349.61 L 206.62,349.49 L 206.13,349.29 L 204.03,349.00 L 203.52,349.00 L 202.50,348.79 L 201.98,348.66 L 200.94,348.16 L 200.41,347.87 L 199.31,347.07 L 197.57,345.50 L 196.97,344.90 L 195.84,343.94 L 195.28,343.50 L 194.21,342.85 L 193.68,342.56 L 192.66,342.21 L 191.16,342.00 L 190.61,342.00 L 189.57,341.77 L 189.05,341.61 L 187.99,340.99 L 187.45,340.62 L 186.25,339.52 L 184.13,337.25 L 183.00,335.94 L 180.51,333.16 L 179.92,332.50 L 178.86,331.35 L 177.61,330.00 L 176.95,329.31 L 175.71,327.28 L 174.53,324.26 L 174.34,323.37 L 173.78,321.81 L 173.63,321.46 L 173.34,320.93 L 172.92,320.45 L 172.80,320.37 L 172.56,319.94 L 172.45,319.68 L 172.27,318.97 L 171.99,316.19 L 171.98,314.99 L 171.81,312.88 L 171.70,311.88 L 171.35,310.32 L 171.16,309.62 L 170.68,308.79 L 169.89,308.57 L 169.85,308.59 L 169.79,308.21 L 169.76,307.96 L 169.70,307.05 L 169.67,306.53 L 169.62,305.11 L 169.59,304.34 L 169.53,302.43 L 169.51,301.42 L 169.46,299.04 L 169.43,297.80 L 169.38,294.98 L 169.36,293.51 L 169.32,290.27 L 169.30,288.60 L 169.26,284.95 L 169.24,283.08 L 169.20,279.05 L 169.19,276.99 L 169.15,272.60 L 169.14,270.37 L 169.11,265.65 L 169.10,263.24 L 169.08,258.21 L 169.07,255.65 L 169.05,250.32 L 169.05,247.62 L 169.03,242.02 L 169.02,224.31 L 169.02,221.74 L 169.02,216.82 L 169.02,214.40 L 169.03,209.79 L 169.03,207.51 L 169.03,203.19 L 169.03,201.06 L 169.04,197.01 L 169.04,193.03 L 169.05,185.87 L 169.06,182.41 L 169.07,176.24 L 169.08,173.26 L 169.11,168.00 L 169.12,165.47 L 169.16,161.03 L 169.18,158.91 L 169.22,155.22 L 169.25,153.46 L 169.31,150.44 L 169.34,149.00 L 169.42,146.57 L 169.46,145.42 L 169.55,143.50 L 169.60,142.60 L 169.71,141.11 L 169.77,140.42 L 169.90,139.28 L 170.04,138.22 L 170.39,136.81 L 171.02,135.14 L 171.57,133.94 L 172.42,131.52 L 172.60,130.95 L 172.84,129.99 L 173.00,128.92 L 173.00,128.67 L 173.28,127.93 L 173.45,127.53 L 174.03,126.58 L 176.50,123.57 L 177.46,122.60 L 178.97,120.56 L 179.29,120.07 L 179.72,119.22 L 180.00,118.24 L 180.00,117.89 L 180.51,116.87 L 180.84,116.32 L 181.89,115.00 L 182.47,114.32 L 183.90,112.83 L 184.64,112.08 L 186.28,110.58 L 187.12,109.84 L 188.82,108.46 L 189.66,107.80 L 191.26,106.68 L 192.03,106.17 L 193.37,105.46 L 194.90,105.00 L 195.21,105.00 L 196.27,104.41 L 198.00,103.00 L 198.65,102.35 L 200.46,101.51 L 203.80,101.00 L 204.84,101.00 L 206.76,100.73 L 207.19,100.65 L 207.88,100.44 L 208.55,100.08 L 208.62,100.01 L 209.51,99.89 L 210.08,99.84 L 211.91,99.75 L 212.94,99.71 L 215.65,99.66 L 217.11,99.63 L 220.63,99.61 L 222.48,99.60 L 226.75,99.61 L 228.97,99.61 L 233.91,99.65 L 236.47,99.67 L 242.03,99.74 L 251.00,99.88 L 253.85,99.93 L 259.40,100.01 L 262.14,100.04 L 267.37,100.09 L 269.94,100.11 L 274.72,100.13 L 277.05,100.14 L 281.27,100.13 L 283.30,100.13 L 286.84,100.10 L 288.51,100.08 L 291.23,100.02 L 292.48,99.99 L 294.27,99.90 L 294.66,99.88 L 295.23,99.83 L 295.78,99.74 L 295.88,99.72 L 296.31,99.67 L 296.55,99.64 L 297.25,99.60 L 298.00,99.55 L 300.25,99.48 L 301.48,99.45 L 304.58,99.40 L 306.22,99.37 L 310.02,99.34 L 311.99,99.32 L 316.36,99.31 L 318.60,99.30 M 302.59,275.43 L 303.65,275.55 L 308.11,275.89 L 310.46,275.88 L 314.82,275.75 L 314.25,275.82 L 312.36,275.99 L 308.68,276.03 L 306.86,276.00 L 303.38,275.61 L 302.43,275.41 M 335.05,270.09 L 331.37,271.66 L 329.52,272.40 L 325.72,273.61 L 323.81,274.17 L 323.77,274.18 L 327.94,272.84 L 330.88,271.78 L 332.24,271.23 L 336.54,269.32 M 293.50,273.52 L 293.23,273.56 L 293.49,273.52 M 340.28,267.27 L 339.86,267.50 L 341.63,266.38 M 233.90,199.53 L 234.14,200.03 L 233.90,199.53 M 294.91,189.56 L 295.79,191.09 L 297.45,193.66 L 298.28,194.88 L 299.89,196.89 L 300.70,197.83 L 302.34,199.33 L 302.60,199.54 L 302.37,199.36 L 300.75,197.91 L 299.96,197.02 L 298.38,195.12 L 297.60,193.98 L 296.03,191.57 L 295.22,190.16 L 293.59,187.20 L 293.58,187.18 M 232.50,194.87 L 232.64,195.54 L 232.50,194.91 L 232.32,193.94 L 232.32,193.89 M 232.01,187.41 L 232.12,191.59 L 232.29,193.55 L 232.12,191.71 L 232.01,187.68 L 232.01,186.61 L 232.01,186.60 M 281.63,168.64 L 282.83,169.92 L 285.18,172.95 L 286.35,174.54 L 288.67,178.22 L 290.80,182.05 L 288.64,178.21 L 285.71,173.77 L 284.22,171.85 L 282.73,169.99 L 281.99,169.15 L 280.58,167.60 M 232.63,179.35 L 232.63,179.30 L 232.71,179.05 M 279.21,166.23 L 280.23,167.25 L 279.81,166.83 L 278.90,165.98 M 271.37,161.38 L 274.08,162.68 L 275.41,163.40 L 275.54,163.49 L 270.33,161.05 M 269.93,160.92 L 270.18,161.00 L 269.81,160.89 Z" fill="rgba(189,210,53,1)"/>
<path d="M 298.07,274.49 L 296.85,274.11 L 294.70,273.66 L 294.22,273.58 L 293.49,273.52 L 292.82,273.61 L 292.59,273.75 L 292.24,273.73 L 292.00,273.30 L 292.00,273.19 L 291.61,272.81 L 291.36,272.60 L 290.55,272.06 L 290.11,271.78 L 288.98,271.17 L 287.07,270.23 L 285.81,269.65 L 283.22,268.16 L 281.92,267.37 L 279.31,265.51 L 278.01,264.54 L 275.44,262.37 L 274.17,261.25 L 271.72,258.85 L 270.52,257.62 L 268.25,255.04 L 267.14,253.74 L 265.11,251.06 L 264.14,249.71 L 262.42,246.99 L 260.27,242.95 L 259.67,241.63 L 258.58,238.39 L 258.07,236.70 L 257.23,233.00 L 256.84,231.13 L 256.33,227.36 L 256.00,222.05 L 256.00,217.47 L 250.89,215.65 L 249.26,215.08 L 245.98,213.21 L 244.36,212.18 L 241.30,209.61 L 239.83,208.26 L 237.29,205.24 L 234.36,200.50 L 233.90,199.51 L 233.21,197.69 L 232.91,196.77 L 232.50,194.87 L 232.32,193.88 L 232.12,191.59 L 232.01,187.41 L 232.01,186.44 L 232.02,184.82 L 232.03,184.06 L 232.09,182.76 L 232.16,181.52 L 232.55,179.62 L 232.81,178.69 L 233.71,176.85 L 233.97,176.36 L 234.64,175.26 L 235.86,173.35 L 236.99,171.60 L 239.58,168.57 L 240.93,167.14 L 243.91,164.75 L 245.43,163.64 L 248.71,161.92 L 250.37,161.15 L 253.87,160.11 L 255.63,159.67 L 259.27,159.33 L 261.09,159.25 L 264.79,159.63 L 266.63,159.92 L 270.31,161.04 L 275.72,163.57 L 276.35,163.95 L 277.70,164.96 L 278.38,165.50 L 279.81,166.83 L 280.52,167.53 L 281.99,169.15 L 282.73,169.99 L 284.22,171.85 L 285.71,173.77 L 288.64,178.21 L 292.74,185.50 L 293.59,187.20 L 295.22,190.16 L 296.03,191.57 L 297.60,193.98 L 298.38,195.12 L 299.96,197.02 L 300.75,197.91 L 302.37,199.36 L 303.20,200.03 L 304.94,201.05 L 305.83,201.52 L 307.74,202.18 L 308.72,202.47 L 310.85,202.81 L 314.36,203.00 L 316.06,203.00 L 319.38,202.54 L 321.04,202.23 L 324.49,201.10 L 326.25,200.43 L 330.04,198.53 L 331.02,198.00 L 333.08,196.78 L 336.35,194.71 L 338.24,193.47 L 342.50,191.16 L 343.52,190.64 L 345.38,189.80 L 347.64,188.96 L 348.68,188.67 L 350.14,188.34 L 350.80,188.21 L 351.78,188.25 L 352.24,188.32 L 353.07,188.79 L 354.54,190.03 L 355.21,190.67 L 356.28,192.06 L 356.50,192.39 L 356.81,192.98 L 357.00,193.67 L 357.00,194.05 L 357.73,194.62 L 359.55,195.00 L 360.37,195.00 L 362.19,195.42 L 363.11,195.68 L 364.89,196.49 L 365.74,196.93 L 367.12,197.95 L 368.38,199.54 L 368.46,199.77 L 368.62,200.44 L 368.69,200.81 L 368.82,201.69 L 369.00,204.58 L 369.00,205.16 L 369.09,206.09 L 369.15,206.52 L 369.36,207.16 L 369.47,207.44 L 369.81,207.79 L 370.44,208.00 L 371.03,208.00 L 372.14,208.71 L 372.68,209.17 L 373.60,210.61 L 374.02,211.40 L 374.61,213.32 L 374.99,216.47 L 374.99,217.00 L 374.85,218.20 L 374.75,218.83 L 374.44,220.22 L 374.09,221.65 L 372.93,224.95 L 372.29,226.66 L 370.63,230.37 L 369.75,232.26 L 367.69,236.17 L 366.63,238.13 L 364.30,242.04 L 363.11,243.97 L 360.60,247.67 L 359.34,249.47 L 356.78,252.76 L 352.99,256.99 L 351.85,258.14 L 349.64,260.20 L 348.54,261.20 L 346.37,263.00 L 344.20,264.74 L 339.72,267.59 L 337.41,268.94 L 332.24,271.23 L 330.88,271.78 L 327.94,272.84 L 323.14,274.38 L 322.32,274.63 L 320.44,275.03 L 319.47,275.21 L 317.34,275.49 L 315.16,275.74 L 310.46,275.88 L 308.11,275.89 L 303.65,275.55 L 302.59,275.43 L 300.64,275.11 L 299.70,274.93 M 330.77,251.04 L 332.06,250.35 L 334.38,248.93 L 335.49,248.21 L 337.42,246.75 L 338.34,246.02 L 339.87,244.57 L 340.58,243.85 L 341.67,242.45 L 342.16,241.76 L 342.78,240.45 L 343.03,239.81 L 343.17,238.63 L 343.17,238.06 L 342.78,237.05 L 341.57,235.77 L 341.14,235.47 L 340.41,235.18 L 340.05,235.10 L 339.18,235.38 L 338.70,235.61 L 337.33,236.63 L 336.94,236.93 L 336.00,237.72 L 334.31,239.17 L 332.58,240.67 L 329.31,242.98 L 327.70,244.03 L 324.48,245.51 L 322.86,246.16 L 319.45,246.92 L 313.86,247.33 L 312.33,247.32 L 309.26,246.94 L 307.73,246.69 L 304.69,245.85 L 303.18,245.39 L 300.24,244.14 L 298.79,243.48 L 296.02,241.87 L 294.67,241.02 L 292.13,239.08 L 290.89,238.08 L 288.65,235.86 L 287.58,234.71 L 285.70,232.25 L 283.37,228.32 L 283.00,227.56 L 282.32,226.28 L 281.99,225.68 L 281.37,224.68 L 281.07,224.21 L 280.50,223.49 L 280.22,223.16 L 279.68,222.69 L 279.14,222.29 L 278.08,222.21 L 276.39,223.09 L 275.94,223.46 L 275.46,224.60 L 275.28,225.22 L 275.31,226.76 L 275.38,227.58 L 275.85,229.43 L 276.15,230.38 L 277.03,232.43 L 277.51,233.46 L 278.74,235.59 L 279.39,236.66 L 280.92,238.76 L 281.72,239.79 L 283.50,241.75 L 286.38,244.42 L 287.60,245.41 L 290.56,247.39 L 292.10,248.37 L 295.41,250.18 L 297.08,251.05 L 300.34,252.48 L 304.75,253.97 L 305.26,254.10 L 306.83,254.32 L 307.69,254.42 L 309.75,254.56 L 316.50,254.65 L 318.22,254.59 L 320.87,254.39 L 322.11,254.27 L 324.19,253.84 L 325.21,253.58 L 327.24,252.78 L 328.29,252.33 M 257.81,179.74 L 257.91,179.22 L 257.57,178.35 L 257.33,177.95 L 256.53,177.42 L 256.10,177.21 L 255.13,177.17 L 253.80,177.80 L 253.42,178.18 L 253.17,179.13 L 253.12,179.60 L 253.42,180.53 L 253.63,180.96 L 254.35,181.57 L 255.74,181.81 L 256.21,181.72 L 257.06,181.06 L 257.44,180.69 Z" fill="rgba(234,246,244,1)"/>
</g>
</svg>